<svg width="10" height="10" viewBox="0 0 10 10" fill="none" xmlns="http://www.w3.org/2000/svg">
<g clipPath="url(#clip0_2_68)">
<path d="M4.99805 8.99976C7.20719 8.99976 8.99805 7.20895 8.99805 4.99988C8.99805 2.79081 7.20719 1 4.99805 1C2.78891 1 0.998047 2.79081 0.998047 4.99988C0.998047 7.20895 2.78891 8.99976 4.99805 8.99976Z" fill="white"/>
<path fill-rule="evenodd" clip-rule="evenodd" d="M0.498047 4.99988C0.498047 2.51465 2.51278 0.5 4.99805 0.5C7.48332 0.5 9.49805 2.51465 9.49805 4.99988C9.49805 7.48511 7.48332 9.49976 4.99805 9.49976C2.51278 9.49976 0.498047 7.48511 0.498047 4.99988ZM4.99805 1.5C3.06504 1.5 1.49805 3.06697 1.49805 4.99988C1.49805 6.93279 3.06504 8.49976 4.99805 8.49976C6.93106 8.49976 8.49805 6.93279 8.49805 4.99988C8.49805 3.06697 6.93106 1.5 4.99805 1.5Z" fill="#999999"/>
</g>
<defs>
<clipPath id="clip0_2_68">
<rect width="10" height="9" fill="white" transform="translate(0 0.5)"/>
</clipPath>
</defs>
</svg>
