<svg width="13" height="19" viewBox="0 0 13 19" fill="none" xmlns="http://www.w3.org/2000/svg">
<path d="M11.1859 2.91631V1.57031H1.98589V2.91631C1.9902 3.97502 2.24421 5.01778 2.72725 5.95989C3.21029 6.90199 3.90876 7.71687 4.7659 8.33831C4.92251 8.45246 5.04992 8.60199 5.13777 8.77473C5.22562 8.94747 5.27142 9.13852 5.27142 9.33231C5.27142 9.52611 5.22562 9.71716 5.13777 9.88989C5.04992 10.0626 4.92251 10.2122 4.7659 10.3263C3.90813 10.9475 3.20911 11.7624 2.72569 12.7048C2.24228 13.6471 1.98812 14.6902 1.98389 15.7493V17.0923H11.1839V15.7473C11.1798 14.6882 10.9256 13.6451 10.4422 12.7027C9.95878 11.7604 9.25971 10.9455 8.40189 10.3243C8.24661 10.2095 8.12046 10.0598 8.03362 9.88736C7.94677 9.71488 7.90165 9.52442 7.90189 9.33131C7.90151 9.13645 7.94725 8.94426 8.03537 8.77046C8.12349 8.59666 8.25148 8.44618 8.40889 8.33131C9.26453 7.71024 9.96182 6.89635 10.4443 5.95557C10.9268 5.01479 11.1808 3.97358 11.1859 2.91631Z" fill="#D8ECFE"/>
<path d="M8.40691 8.33531C9.26405 7.71387 9.96252 6.89899 10.4456 5.95689C10.9286 5.01479 11.1826 3.97202 11.1869 2.91331V1.57031H9.68691V2.91631C9.68259 3.97502 9.4286 5.01778 8.94556 5.95989C8.46252 6.90199 7.76405 7.71687 6.90691 8.33831C6.7495 8.45318 6.62151 8.60366 6.53339 8.77746C6.44527 8.95126 6.39953 9.14345 6.3999 9.33831C6.39966 9.53142 6.44479 9.72188 6.53163 9.89436C6.61848 10.0668 6.74462 10.2165 6.8999 10.3313C7.75773 10.9525 8.4568 11.7674 8.94022 12.7097C9.42364 13.6521 9.67777 14.6952 9.68192 15.7543V17.0973H11.1819V15.7473C11.1778 14.6882 10.9236 13.6451 10.4402 12.7027C9.9568 11.7604 9.25773 10.9455 8.3999 10.3243C8.24457 10.2096 8.11838 10.0599 8.03153 9.88742C7.94467 9.71493 7.89958 9.52443 7.8999 9.33131C7.90016 9.13712 7.94621 8.94573 8.0343 8.77268C8.1224 8.59962 8.25005 8.44978 8.40691 8.33531Z" fill="#C4E2FF"/>
<path d="M3.05078 16.0092V15.8302C3.07067 15.36 3.19582 14.9003 3.41701 14.4849C3.63819 14.0696 3.94977 13.7091 4.32878 13.4302C4.96755 12.9118 5.76515 12.6289 6.58778 12.6289C7.41041 12.6289 8.20802 12.9118 8.84679 13.4302C9.22579 13.7091 9.53736 14.0696 9.75854 14.4849C9.97973 14.9003 10.1049 15.36 10.1248 15.8302V16.0092H3.05078Z" fill="#FFD15B"/>
<path d="M1.7418 1.57344H11.4338C11.6062 1.57344 11.7715 1.50496 11.8934 1.38306C12.0153 1.26116 12.0838 1.09583 12.0838 0.923437C12.0838 0.751046 12.0153 0.585717 11.8934 0.463818C11.7715 0.341919 11.6062 0.273438 11.4338 0.273438H1.7418C1.56941 0.273438 1.40408 0.341919 1.28218 0.463818C1.16028 0.585717 1.0918 0.751046 1.0918 0.923437C1.0918 1.09583 1.16028 1.26116 1.28218 1.38306C1.40408 1.50496 1.56941 1.57344 1.7418 1.57344Z" fill="#596C76"/>
<path d="M1.7418 18.386H11.4338C11.6062 18.386 11.7715 18.3175 11.8934 18.1956C12.0153 18.0737 12.0838 17.9084 12.0838 17.736C12.0838 17.5636 12.0153 17.3982 11.8934 17.2763C11.7715 17.1544 11.6062 17.0859 11.4338 17.0859H1.7418C1.56941 17.0859 1.40408 17.1544 1.28218 17.2763C1.16028 17.3982 1.0918 17.5636 1.0918 17.736C1.0918 17.9084 1.16028 18.0737 1.28218 18.1956C1.40408 18.3175 1.56941 18.386 1.7418 18.386Z" fill="#596C76"/>
<path d="M3.11182 3.73828C3.28933 4.91025 3.83414 5.99567 4.66782 6.83828C4.91823 7.09347 5.21701 7.29618 5.54668 7.43456C5.87634 7.57294 6.23028 7.64422 6.58781 7.64422C6.94535 7.64422 7.2993 7.57294 7.62897 7.43456C7.95863 7.29618 8.25741 7.09347 8.50783 6.83828C9.34151 5.99567 9.88632 4.91025 10.0638 3.73828H3.11182Z" fill="#FEB137"/>
<path d="M11.4337 0.273438H9.57471C9.7471 0.273438 9.91243 0.341919 10.0343 0.463818C10.1562 0.585717 10.2247 0.751046 10.2247 0.923437C10.2247 1.09583 10.1562 1.26116 10.0343 1.38306C9.91243 1.50496 9.7471 1.57344 9.57471 1.57344H11.4337C11.6061 1.57344 11.7714 1.50496 11.8933 1.38306C12.0152 1.26116 12.0837 1.09583 12.0837 0.923437C12.0837 0.751046 12.0152 0.585717 11.8933 0.463818C11.7714 0.341919 11.6061 0.273437 11.4337 0.273438Z" fill="#465A61"/>
<path d="M11.4337 17.0898H9.57471C9.7471 17.0898 9.91243 17.1583 10.0343 17.2802C10.1562 17.4021 10.2247 17.5674 10.2247 17.7398C10.2247 17.9122 10.1562 18.0776 10.0343 18.1995C9.91243 18.3214 9.7471 18.3898 9.57471 18.3898H11.4337C11.6061 18.3898 11.7714 18.3214 11.8933 18.1995C12.0152 18.0776 12.0837 17.9122 12.0837 17.7398C12.0837 17.5674 12.0152 17.4021 11.8933 17.2802C11.7714 17.1583 11.6061 17.0898 11.4337 17.0898Z" fill="#465A61"/>
<path d="M9.45898 14.043C9.60681 14.5976 9.68179 15.169 9.68201 15.743V16.007H10.125V15.828C10.114 15.1743 9.87889 14.5441 9.45898 14.043Z" fill="#FFC344"/>
<path d="M9.6297 3.73737C9.47148 4.97734 8.96917 6.14822 8.17969 7.11738C8.29642 7.03198 8.40611 6.93734 8.50769 6.83437C9.34137 5.99176 9.88618 4.90634 10.0637 3.73438L9.6297 3.73737Z" fill="#F6AB31"/>
<path d="M2.77832 15.8291V16.0081C2.77832 16.0805 2.80708 16.1499 2.85828 16.2011C2.90947 16.2523 2.97891 16.2811 3.05132 16.2811H10.1263C10.1987 16.2811 10.2682 16.2523 10.3194 16.2011C10.3706 16.1499 10.3993 16.0805 10.3993 16.0081V15.8291C10.3791 15.3182 10.2449 14.8183 10.0064 14.366C9.768 13.9137 9.43141 13.5204 9.02132 13.2151C8.33368 12.6565 7.47475 12.3516 6.58882 12.3516C5.7029 12.3516 4.84397 12.6565 4.15633 13.2151C3.74623 13.5204 3.40964 13.9137 3.1712 14.366C2.93277 14.8183 2.79853 15.3182 2.77832 15.8291ZM4.50333 13.6371C5.09322 13.1589 5.82949 12.898 6.58882 12.898C7.34816 12.898 8.08442 13.1589 8.67432 13.6371C9.00972 13.8821 9.28844 14.1965 9.49153 14.5589C9.69462 14.9212 9.81734 15.3231 9.85132 15.7371H3.32732C3.36118 15.3231 3.48373 14.9213 3.68665 14.559C3.88956 14.1966 4.16811 13.8822 4.50333 13.6371Z" fill="black"/>
<path d="M1.71605 1.84207V2.91207C1.7185 4.14303 2.04882 5.35112 2.67305 6.41207C2.70979 6.47452 2.76982 6.51983 2.83996 6.53802C2.9101 6.55621 2.9846 6.5458 3.04706 6.50907C3.10951 6.47233 3.15482 6.41229 3.17301 6.34215C3.1912 6.27202 3.18078 6.19752 3.14405 6.13507C2.56852 5.15657 2.2644 4.04227 2.26305 2.90707V1.84207H10.9141V2.91207C10.913 4.60617 10.2393 6.23053 9.04105 7.42807C8.79284 7.67741 8.52534 7.90679 8.24105 8.11407C8.04916 8.25316 7.89296 8.43574 7.78525 8.64684C7.67754 8.85795 7.62139 9.09157 7.62139 9.32857C7.62139 9.56556 7.67754 9.79919 7.78525 10.0103C7.89296 10.2214 8.04916 10.404 8.24105 10.5431C9.31898 11.3271 10.1302 12.4231 10.5651 13.6831C10.5887 13.7516 10.6385 13.808 10.7037 13.8398C10.7689 13.8716 10.844 13.8762 10.9125 13.8526C10.9811 13.829 11.0375 13.7791 11.0693 13.7139C11.1011 13.6488 11.1057 13.5736 11.0821 13.5051C10.6105 12.1407 9.73159 10.954 8.56405 10.1051C8.44177 10.0164 8.34223 9.90006 8.27359 9.76552C8.20496 9.63098 8.16918 9.4821 8.16918 9.33107C8.16918 9.18003 8.20496 9.03115 8.27359 8.89661C8.34223 8.76207 8.44177 8.64571 8.56405 8.55707C8.87006 8.33268 9.15794 8.08458 9.42505 7.81507C10.7248 6.51552 11.4553 4.75304 11.4561 2.91507V1.84207C11.577 1.84062 11.6965 1.81537 11.8077 1.76775C11.9189 1.72013 12.0196 1.65108 12.1041 1.56453C12.1886 1.47799 12.2552 1.37565 12.3002 1.26335C12.3451 1.15106 12.3675 1.03101 12.366 0.910066C12.3646 0.789118 12.3394 0.66964 12.2917 0.558452C12.2441 0.447264 12.1751 0.346543 12.0885 0.262042C12.002 0.177541 11.8996 0.110913 11.7873 0.0659631C11.675 0.0210131 11.555 -0.00137885 11.434 6.56922e-05H1.74205C1.62181 0.00072018 1.50287 0.0250693 1.39204 0.0717209C1.28121 0.118373 1.18066 0.186412 1.09615 0.271948C1.01164 0.357484 0.944812 0.45884 0.899495 0.570221C0.854178 0.681601 0.831261 0.800822 0.832051 0.921066C0.831118 1.15918 0.922841 1.38831 1.08782 1.56001C1.2528 1.73171 1.4781 1.8325 1.71605 1.84107V1.84207ZM1.74205 0.547066H11.434C11.5317 0.548907 11.6246 0.58925 11.6926 0.659304C11.7606 0.729358 11.7981 0.823446 11.7971 0.921066C11.7984 1.01886 11.761 1.1132 11.6929 1.18347C11.6249 1.25374 11.5318 1.29422 11.434 1.29607H1.74205C1.64445 1.29422 1.55152 1.25388 1.48353 1.18383C1.41553 1.11377 1.37798 1.01969 1.37905 0.922066C1.37825 0.873606 1.38701 0.825465 1.40483 0.780391C1.42264 0.735318 1.44916 0.694195 1.48287 0.659372C1.51658 0.624549 1.55682 0.596707 1.60129 0.577437C1.64576 0.558168 1.6936 0.547847 1.74205 0.547066Z" fill="black"/>
<path d="M11.4599 16.8201C11.4898 16.1455 11.4678 15.4695 11.3939 14.7982C11.3839 14.7264 11.3457 14.6616 11.2878 14.618C11.23 14.5744 11.1572 14.5556 11.0854 14.5656C11.0137 14.5757 10.9489 14.6139 10.9053 14.6718C10.8617 14.7296 10.8429 14.8024 10.8529 14.8741C10.923 15.5203 10.9434 16.1709 10.9139 16.8201H2.26294C2.15843 15.6279 2.32562 14.4275 2.75194 13.3092C3.2136 12.2072 3.9678 11.2524 4.93294 10.5482C5.12483 10.4091 5.28103 10.2265 5.38874 10.0154C5.49645 9.80428 5.55261 9.57065 5.55261 9.33365C5.55261 9.09665 5.49645 8.86304 5.38874 8.65193C5.28103 8.44083 5.12483 8.25825 4.93294 8.11916C4.54082 7.83158 4.18134 7.50195 3.86094 7.13616C3.8373 7.10917 3.80858 7.0871 3.77641 7.07121C3.74425 7.05533 3.70927 7.04593 3.67347 7.04357C3.63767 7.0412 3.60176 7.04589 3.56778 7.0574C3.5338 7.06892 3.50243 7.08702 3.47544 7.11066C3.44846 7.1343 3.42639 7.16301 3.4105 7.19518C3.39461 7.22734 3.38522 7.26233 3.38285 7.29813C3.38048 7.33392 3.38519 7.36983 3.3967 7.40381C3.40821 7.43779 3.42631 7.46917 3.44994 7.49616C3.79661 7.89211 4.18559 8.24889 4.60994 8.56015C4.73222 8.6488 4.83175 8.76515 4.90039 8.89969C4.96903 9.03423 5.00481 9.18312 5.00481 9.33415C5.00481 9.48519 4.96903 9.63407 4.90039 9.7686C4.83175 9.90314 4.73222 10.0195 4.60994 10.1082C3.56459 10.8715 2.74782 11.9061 2.24794 13.1001C1.79139 14.2846 1.60982 15.5573 1.71694 16.8221C1.48324 16.8287 1.26124 16.9259 1.09794 17.0932C0.971345 17.2222 0.885375 17.3855 0.850678 17.5629C0.815982 17.7403 0.83408 17.924 0.902734 18.0912C0.971387 18.2584 1.08758 18.4018 1.23692 18.5037C1.38627 18.6055 1.56221 18.6613 1.74294 18.6642H11.4349C11.6792 18.6676 11.9148 18.5739 12.09 18.4036C12.2652 18.2333 12.3655 18.0004 12.3689 17.7562C12.3724 17.5119 12.2787 17.2763 12.1084 17.1011C11.9381 16.9259 11.7052 16.8256 11.4609 16.8221L11.4599 16.8201ZM11.4339 18.1152H1.74194C1.64597 18.1102 1.55555 18.0686 1.48937 17.9989C1.42319 17.9292 1.3863 17.8368 1.3863 17.7406C1.3863 17.6445 1.42319 17.5521 1.48937 17.4824C1.55555 17.4127 1.64597 17.3711 1.74194 17.3662H11.4339C11.5299 17.3711 11.6203 17.4127 11.6865 17.4824C11.7527 17.5521 11.7896 17.6445 11.7896 17.7406C11.7896 17.8368 11.7527 17.9292 11.6865 17.9989C11.6203 18.0686 11.5299 18.1102 11.4339 18.1152Z" fill="black"/>
<path d="M6.86194 8.47272C6.86194 8.40018 6.83312 8.33062 6.78183 8.27933C6.73054 8.22804 6.66098 8.19922 6.58844 8.19922C6.5159 8.19922 6.44634 8.22804 6.39505 8.27933C6.34376 8.33062 6.31494 8.40018 6.31494 8.47272V8.83672C6.31494 8.90925 6.34376 8.97883 6.39505 9.03012C6.44634 9.08141 6.5159 9.11023 6.58844 9.11023C6.66098 9.11023 6.73054 9.08141 6.78183 9.03012C6.83312 8.97883 6.86194 8.90925 6.86194 8.83672V8.47272Z" fill="black"/>
<path d="M6.58797 11.9535C6.66037 11.9535 6.72981 11.9247 6.78101 11.8735C6.8322 11.8223 6.86098 11.7529 6.86098 11.6805V11.3165C6.86098 11.2439 6.83216 11.1744 6.78087 11.1231C6.72958 11.0718 6.66 11.043 6.58746 11.043C6.51493 11.043 6.44536 11.0718 6.39407 11.1231C6.34278 11.1744 6.31396 11.2439 6.31396 11.3165V11.6805C6.31396 11.7164 6.32107 11.752 6.33485 11.7852C6.34864 11.8184 6.36883 11.8485 6.39429 11.8739C6.41974 11.8992 6.44995 11.9193 6.48318 11.933C6.51642 11.9466 6.55203 11.9536 6.58797 11.9535Z" fill="black"/>
<path d="M6.58794 9.6211C6.55209 9.6211 6.5166 9.62816 6.48347 9.64188C6.45035 9.6556 6.42025 9.6757 6.3949 9.70105C6.36955 9.7264 6.34944 9.75649 6.33572 9.78961C6.322 9.82274 6.31494 9.85825 6.31494 9.89411V10.2581C6.31494 10.3306 6.34376 10.4002 6.39505 10.4515C6.44634 10.5028 6.5159 10.5316 6.58844 10.5316C6.66098 10.5316 6.73054 10.5028 6.78183 10.4515C6.83312 10.4002 6.86194 10.3306 6.86194 10.2581V9.89411C6.86194 9.85817 6.85485 9.82259 6.84106 9.7894C6.82728 9.75621 6.80709 9.72608 6.78163 9.70072C6.75618 9.67535 6.72596 9.65526 6.69272 9.6416C6.65948 9.62794 6.62387 9.62096 6.58794 9.6211Z" fill="black"/>
<path d="M10.3349 3.77885C10.3409 3.73997 10.3383 3.70027 10.3274 3.66248C10.3166 3.62468 10.2977 3.58967 10.272 3.55985C10.2464 3.53003 10.2146 3.50611 10.1789 3.48971C10.1431 3.47331 10.1043 3.46483 10.0649 3.46484H3.11295C3.07362 3.46483 3.03475 3.47331 2.99901 3.48971C2.96327 3.50611 2.93149 3.53003 2.90585 3.55985C2.88021 3.58967 2.86131 3.62468 2.85045 3.66248C2.83959 3.70027 2.83704 3.73997 2.84294 3.77885C3.02824 5.00685 3.59945 6.14404 4.47394 7.02585C4.74984 7.30686 5.07898 7.53007 5.44212 7.68244C5.80527 7.83481 6.19513 7.91329 6.58894 7.91329C6.98276 7.91329 7.37262 7.83481 7.73576 7.68244C8.09891 7.53007 8.42803 7.30686 8.70393 7.02585C9.57842 6.14404 10.1497 5.00685 10.3349 3.77885ZM6.58894 7.36684C6.26787 7.3659 5.95015 7.30145 5.6541 7.17719C5.35805 7.05294 5.08951 6.87133 4.86394 6.64285C4.14712 5.9199 3.65289 5.0064 3.43994 4.01085H9.73995C9.52705 5.00642 9.03279 5.91994 8.31593 6.64285C8.09025 6.8718 7.82144 7.05375 7.52501 7.17819C7.22858 7.30263 6.91043 7.36709 6.58894 7.36784V7.36684Z" fill="black"/>
</svg>
