<svg width="156" height="122" viewBox="0 0 156 122" fill="none" xmlns="http://www.w3.org/2000/svg">
<circle cx="61" cy="61" r="61" fill="#F5F5F5"/>
<mask id="mask0_18486_18419" style="mask-type:alpha" maskUnits="userSpaceOnUse" x="0" y="0" width="156" height="122">
<path d="M155.5 47.5C155.5 81.1894 94.6894 122 61 122C27.3106 122 0 94.6894 0 61C0 27.3106 27.3106 0 61 0C94.6894 0 155.5 13.8106 155.5 47.5Z" fill="#F5F5F5"/>
</mask>
<g mask="url(#mask0_18486_18419)">
<path d="M36.192 117.5C36.192 117.5 35.3561 99.0048 35.0441 97.1778C35.0511 97.1028 15.6592 80.4382 46.3082 64.9112C46.3752 64.6342 49.158 62.0744 46.713 55.0674C46.827 54.9924 38.9553 50.1673 43.0333 32.4893C42.9863 32.3303 46.5599 20.9456 62.6329 25.0166C62.8469 25.0166 69.2331 27.057 71.2531 23.003C71.5531 22.897 77.5161 25.6198 75.2531 33.3428C74.8553 34.3674 74.1675 35.2541 73.2736 35.8936C72.3796 36.533 71.3185 36.8971 70.2203 36.9424C66.3813 37.3074 56.202 34.803 53.92 44.252C51.638 53.701 49.508 47.9153 50.07 47.2823C50.632 46.6493 49.87 42.1916 46.712 43.6026C43.554 45.0136 47.1964 50.6778 47.1964 50.6778C47.1964 50.6778 48.4624 53.2255 47.1964 55.0625" stroke="black"/>
<path d="M85.6611 82.3945C85.6611 82.3945 110.867 81.6105 123.902 58.8945C124.133 58.4285 118.741 60.4237 111.809 56.4277C111.785 56.4407 106.1 67.1811 89.9092 69.8281" stroke="black"/>
<path d="M144.533 35.2988L131.213 36.1777C129.457 39.2011 128.555 42.6447 128.604 46.1406C128.653 49.6366 129.65 53.0542 131.49 56.0273C131.521 55.9323 144.76 57.5557 144.76 57.5557L144.533 35.2988Z" fill="#F5F5F5" stroke="black" stroke-linecap="round" stroke-linejoin="round"/>
<path d="M144.706 58.3535C148.296 58.3535 151.206 52.9809 151.206 46.3535C151.206 39.7261 148.296 34.3535 144.706 34.3535C141.116 34.3535 138.206 39.7261 138.206 46.3535C138.206 52.9809 141.116 58.3535 144.706 58.3535Z" fill="#FEDA67"/>
<path d="M144.706 57.8535C148.02 57.8535 150.706 52.7048 150.706 46.3535C150.706 40.0022 148.02 34.8535 144.706 34.8535C141.392 34.8535 138.706 40.0022 138.706 46.3535C138.706 52.7048 141.392 57.8535 144.706 57.8535Z" stroke="black"/>
<path d="M64.0264 63.0244C64.0264 63.0244 70.4514 61.36 72.2954 49.585C74.1394 37.81 71.8843 36.75 71.8843 36.75" stroke="black"/>
<path d="M46.7137 55.0743C46.8287 54.9993 38.957 50.1741 43.034 32.4961C42.987 32.3371 46.5621 20.9515 62.6341 25.0225C62.8481 25.0225 69.2337 27.0628 71.2537 23.0088C71.5537 22.9028 77.5168 25.6257 75.2537 33.3487C74.8559 34.3732 74.1682 35.26 73.2743 35.8994C72.3803 36.5389 71.3192 36.9038 70.221 36.9493C66.382 37.3143 56.2027 34.8088 53.9207 44.2578C51.6387 53.7068 49.5091 47.9211 50.0711 47.2881C50.6331 46.6551 49.8707 42.1974 46.7127 43.6084C43.5547 45.0194 47.1971 50.6836 47.1971 50.6836C47.1971 50.6836 48.4641 53.2314 47.1971 55.0684" fill="black"/>
<path d="M42.585 86.7891C42.585 86.7891 63.1968 106.809 76.4448 67.8516" stroke="black"/>
<path d="M35.0068 97.1602C35.0068 97.1602 54.7359 117.58 75.2759 97.1309" stroke="black"/>
<path d="M67.2909 43.835L131.354 36.1504C129.546 39.141 128.59 42.569 128.59 46.0635C128.59 49.5579 129.546 52.986 131.354 55.9766C131.475 55.9146 67.2909 48.915 67.2909 48.915C67.2909 48.915 64.8196 48.835 64.7636 46.54C64.7076 44.245 67.2909 43.835 67.2909 43.835Z" fill="#7CF3D0" stroke="black"/>
<path d="M86.2987 65.8638L87.1488 58.7329C87.1488 58.7329 90.1238 53.6634 87.1488 50.5864C84.1738 47.5094 82.6209 41.0781 89.6659 40.6011C89.6449 40.5311 81.3101 36.2541 75.5531 42.3511C69.7961 48.4481 79.5761 56.3638 79.5761 56.3638V64.9233" fill="#F1F1F1"/>
<path d="M86.2987 65.8638L87.1488 58.7329C87.1488 58.7329 90.1238 53.6634 87.1488 50.5864C84.1738 47.5094 82.6209 41.0781 89.6659 40.6011C89.6449 40.5311 81.3101 36.2541 75.5531 42.3511C69.7961 48.4481 79.5761 56.3638 79.5761 56.3638V64.9233" stroke="black"/>
<path d="M120.069 58.9546C121.779 58.4856 123.104 55.2817 123.104 55.2817H120.069C120.069 55.2817 114.547 50.5357 112.839 45.7817C112.801 45.7147 112.199 45.7817 112.199 45.7817C112.834 49.4712 113.049 53.2206 112.839 56.9585C112.832 56.9375 118.36 59.4256 120.069 58.9546Z" fill="#F1F1F1" stroke="black"/>
<path d="M46.5054 65.2206C46.5054 65.2206 47.4233 70.9824 54.5703 71.3124C54.7773 71.1234 63.0379 71.2446 61.6699 63.3896C61.7379 63.2226 71.4251 61.3262 76.2891 68.1552C76.2891 68.2812 78.019 64.3554 78.019 64.3554C78.019 64.3554 85.003 67.6633 90.519 64.7753C90.585 64.6393 90.704 79.3899 75.688 96.7519C75.637 96.7329 74.5464 116.421 74.5464 116.421C74.5464 116.421 74.546 122.133 69.623 122.087" stroke="black"/>
<path d="M66.735 55.971C66.4283 56.3221 66.049 56.6021 65.6232 56.7918C65.1974 56.9815 64.7357 57.0761 64.2696 57.0694C63.8035 57.0627 63.3435 56.9544 62.9234 56.7525C62.5032 56.5506 62.1324 56.2601 61.8359 55.9004" stroke="black" stroke-linecap="round"/>
</g>
</svg>
