<svg width="267" height="233" viewBox="0 0 267 233" fill="none" xmlns="http://www.w3.org/2000/svg">
<path d="M38.814 7.29885L9.56302 21.9709C7.37602 22.9029 5.95703 25.0499 5.95703 27.4269V41.1099C5.95703 53.3339 9.36903 65.4479 16.388 76.1429C21.657 84.1709 28.645 94.4319 40.272 100.299H45.52C58.463 96.3519 68.124 85.8298 74.03 76.8298C81.049 66.1348 84.46 54.0219 84.46 41.7969V27.4279C84.46 25.0508 83.041 22.9029 80.854 21.9719L47.533 7.77385C46.048 7.14085 40.299 6.66585 38.814 7.29885Z" fill="#E0E0E0"/>
<path d="M37.635 7.77407L4.31497 21.9711C2.12797 22.9031 0.708984 25.0501 0.708984 27.4271V41.1101C0.708984 53.3341 4.12098 65.4481 11.139 76.1431C17.045 85.1421 26.191 94.4091 40.271 100.299C53.214 96.3521 62.875 85.8301 68.781 76.8301C75.8 66.1351 79.211 54.0221 79.211 41.7971V27.4281C79.211 25.0511 77.792 22.9031 75.605 21.9721L42.285 7.77407C40.8 7.14107 39.121 7.14107 37.635 7.77407Z" fill="#F5F5F5"/>
<path d="M79.1047 38.0908C79.1227 38.0898 79.1437 38.3068 79.1687 38.7208C79.1897 39.1908 79.2167 39.7908 79.2497 40.5328C79.2807 41.3208 79.3267 42.2848 79.2727 43.4038C79.2157 44.5218 79.2627 45.8028 79.0997 47.2048C78.9647 48.6088 78.8717 50.1538 78.5827 51.7888C78.4497 52.6078 78.3467 53.4608 78.1767 54.3278C77.9907 55.1928 77.8007 56.0828 77.6047 56.9948C76.7337 60.6208 75.5257 64.5628 73.7627 68.4998C71.9927 72.4338 69.9027 75.9848 67.7857 79.0588C66.6747 80.5598 65.6517 82.0098 64.5527 83.2558C64.0137 83.8858 63.5227 84.5208 62.9957 85.0828C62.4677 85.6418 61.9607 86.1788 61.4747 86.6928C60.5297 87.7418 59.5597 88.5748 58.7507 89.3488C57.9457 90.1288 57.2037 90.7448 56.5877 91.2358C56.0087 91.7018 55.5407 92.0788 55.1747 92.3738C54.8487 92.6288 54.6717 92.7568 54.6607 92.7428C54.6497 92.7288 54.8047 92.5738 55.1087 92.2928C55.4577 91.9798 55.9037 91.5788 56.4557 91.0828C57.0497 90.5688 57.7697 89.9328 58.5517 89.1368C59.3387 88.3468 60.2867 87.4988 61.2087 86.4398C61.6837 85.9218 62.1797 85.3798 62.6957 84.8168C63.2117 84.2518 63.6917 83.6138 64.2207 82.9818C65.2987 81.7318 66.3017 80.2818 67.3937 78.7848C69.4737 75.7188 71.5337 72.1898 73.2887 68.2888C75.0377 64.3838 76.2487 60.4788 77.1397 56.8858C77.3407 55.9818 77.5377 55.1008 77.7287 54.2428C77.9057 53.3828 78.0167 52.5368 78.1577 51.7248C78.4637 50.1028 78.5777 48.5688 78.7347 47.1748C78.9217 45.7828 78.8987 44.5088 78.9837 43.3968C79.0657 42.2828 79.0497 41.3228 79.0497 40.5368C79.0567 39.7948 79.0627 39.1948 79.0667 38.7258C79.0727 38.3098 79.0867 38.0918 79.1047 38.0908Z" fill="#E0E0E0"/>
<path d="M37.4792 67.8349L18.3652 52.6379L23.6682 45.9689L36.4853 56.1589L55.2022 35.2129L61.5552 40.8909L37.4792 67.8349Z" fill="white"/>
<path d="M262.216 148.703H258.6V129.019C258.6 124.386 254.831 120.617 250.198 120.617C245.565 120.617 241.796 124.386 241.796 129.019V148.703H238.18V129.019C238.18 122.392 243.572 117 250.199 117C256.826 117 262.218 122.392 262.218 129.019V148.703H262.216Z" fill="#EBEBEB"/>
<path d="M263.317 160.73H237.077C235.378 160.73 234 159.352 234 157.653V138.419C234 136.72 235.378 135.342 237.077 135.342H263.317C265.016 135.342 266.394 136.72 266.394 138.419V157.653C266.394 159.352 265.017 160.73 263.317 160.73Z" fill="#EBEBEB"/>
<path d="M252.684 148.697C253.318 148.059 253.71 147.182 253.71 146.21C253.71 144.242 252.115 142.647 250.147 142.647C248.18 142.647 246.584 144.242 246.584 146.21C246.584 147.838 247.683 149.196 249.175 149.621L248.409 153.006H251.8L251.119 149.621C251.719 149.45 252.257 149.128 252.684 148.697Z" fill="#FAFAFA"/>
<path d="M42.09 145.683C45.028 145.18 47.572 142.86 48.342 139.61C49.347 135.352 46.926 131.133 42.933 130.189C38.942 129.245 34.89 131.931 33.884 136.189C33.11 139.47 34.38 142.709 36.825 144.463C25.3 143.56 23 155.78 23 155.78L49.306 162.004C49.306 162.004 52.743 149.908 42.09 145.683Z" fill="#EBEBEB"/>
<path d="M221.734 217.204C224.185 215.732 225.651 212.774 225.208 209.602C224.625 205.447 220.993 202.52 217.096 203.065C213.201 203.61 210.514 207.42 211.098 211.575C211.547 214.776 213.809 217.229 216.605 217.946C205.992 221.149 208.188 232.87 208.188 232.87L233.862 229.279C233.862 229.279 232.724 217.274 221.734 217.204Z" fill="#F5F5F5"/>
<path d="M142.57 0.725229L71.511 36.3688C66.1989 38.6323 62.75 43.8491 62.75 49.6245V82.8649C62.75 112.561 71.0375 141.99 88.0895 167.97C100.889 187.473 117.864 212.4 146.109 226.652H158.859C190.301 217.063 213.77 191.501 228.119 169.639C245.171 143.659 253.459 114.232 253.459 84.534V49.6245C253.459 43.8491 250.012 38.6323 244.698 36.3688L163.752 1.87826C160.145 0.342016 146.179 -0.811016 142.57 0.725229Z" fill="#FFBF4D"/>
<path opacity="0.3" d="M142.57 0.725229L71.511 36.3688C66.1989 38.6323 62.75 43.8491 62.75 49.6245V82.8649C62.75 112.561 71.0375 141.99 88.0895 167.97C100.889 187.473 117.864 212.4 146.109 226.652H158.859C190.301 217.063 213.77 191.501 228.119 169.639C245.171 143.659 253.459 114.232 253.459 84.534V49.6245C253.459 43.8491 250.012 38.6323 244.698 36.3688L163.752 1.87826C160.145 0.342016 146.179 -0.811016 142.57 0.725229Z" fill="black"/>
<path d="M139.707 1.87826L58.761 36.3688C53.4489 38.6323 50 43.8491 50 49.6245V82.8649C50 112.561 58.2875 141.99 75.3395 167.97C89.6886 189.833 111.906 212.344 146.111 226.652C177.553 217.063 201.022 191.501 215.371 169.639C232.423 143.659 240.711 114.232 240.711 84.534V49.6245C240.711 43.8491 237.263 38.6323 231.95 36.3688L151.002 1.87826C147.395 0.342013 143.316 0.342013 139.707 1.87826Z" fill="#FFBF4D"/>
<path d="M177.423 120.202H168.791V73.2172C168.791 62.1586 159.793 53.1609 148.735 53.1609C137.676 53.1609 128.678 62.1586 128.678 73.2172V120.202H120.047V73.2172C120.047 57.3983 132.918 44.5293 148.735 44.5293C164.552 44.5293 177.423 57.4 177.423 73.2172V120.202Z" fill="#F5F5F5"/>
<path d="M177.502 148.909H119.971C114.506 148.909 110.074 144.477 110.074 139.012V98.2027C110.074 92.7373 114.506 88.3057 119.971 88.3057H177.502C182.967 88.3057 187.399 92.7373 187.399 98.2027V139.012C187.399 144.477 182.967 148.909 177.502 148.909Z" fill="white"/>
<path d="M177.503 148.909C177.496 148.845 178.424 148.918 180.076 148.467C181.679 148.02 184.152 146.837 185.821 144.03C186.661 142.657 187.19 140.889 187.189 138.932C187.177 136.936 187.165 134.773 187.153 132.45C187.134 127.79 187.112 122.495 187.087 116.647C187.059 110.795 187.03 104.392 186.998 97.5202C186.795 94.2126 184.644 90.9392 181.381 89.5307C179.748 88.7779 177.997 88.6399 176.082 88.708C174.197 88.7115 172.284 88.7132 170.35 88.7166C154.861 88.7268 137.843 88.7387 119.977 88.7506C117.843 88.7711 115.728 89.4813 114.084 90.8131C112.451 92.1365 111.231 93.981 110.78 96.0146C110.537 97.0365 110.496 98.0413 110.513 99.1416C110.513 100.221 110.511 101.298 110.511 102.369C110.509 104.512 110.508 106.637 110.508 108.744C110.499 117.169 110.491 125.297 110.482 133.041C110.644 136.883 109.84 140.855 111.824 143.895C113.626 146.964 117.089 148.71 120.442 148.543C127.325 148.562 133.737 148.581 139.596 148.598C151.269 148.657 160.734 148.705 167.332 148.739C170.568 148.775 173.099 148.802 174.873 148.823C175.699 148.841 176.35 148.855 176.834 148.867C177.276 148.879 177.503 148.894 177.503 148.909C177.503 148.925 177.276 148.94 176.835 148.955C176.35 148.966 175.701 148.981 174.875 149C173.102 149.018 170.569 149.047 167.333 149.083C160.735 149.117 151.273 149.165 139.598 149.225C133.739 149.242 127.325 149.259 120.444 149.279C116.908 149.475 113.102 147.61 111.158 144.297C110.148 142.681 109.661 140.712 109.677 138.776C109.673 136.89 109.671 134.978 109.668 133.043C109.659 125.299 109.651 117.171 109.642 108.746C109.641 106.639 109.641 104.513 109.639 102.371C109.639 101.299 109.637 100.225 109.637 99.1433C109.617 98.0873 109.658 96.9087 109.925 95.8119C110.421 93.5859 111.749 91.5676 113.536 90.1217C115.329 88.6655 117.651 87.8837 119.981 87.8633C137.845 87.8752 154.865 87.8871 170.353 87.8991C172.288 87.9025 174.199 87.9042 176.086 87.9076C177.925 87.8394 179.988 87.9961 181.703 88.8187C185.228 90.3584 187.533 93.9027 187.734 97.4674C187.792 104.403 187.72 110.779 187.717 116.647C187.693 122.495 187.671 127.79 187.65 132.45C187.637 134.773 187.625 136.938 187.615 138.932C187.592 140.966 187.012 142.804 186.119 144.209C184.343 147.085 181.771 148.24 180.126 148.64C178.426 149.042 177.503 148.909 177.503 148.909Z" fill="#263238"/>
<path d="M154.672 120.188C156.184 118.663 157.119 116.572 157.119 114.25C157.119 109.555 153.311 105.747 148.615 105.747C143.92 105.747 140.111 109.555 140.111 114.25C140.111 118.137 142.734 121.378 146.295 122.393L144.468 130.473H152.563L150.937 122.393C152.371 121.984 153.651 121.215 154.672 120.188Z" fill="#FFBF4D"/>
</svg>
