<svg width="126" height="94" viewBox="0 0 126 94" fill="none" xmlns="http://www.w3.org/2000/svg">
<path d="M112.88 38.3105L105.103 19.9893C105.03 19.8191 104.925 19.6648 104.794 19.5353C104.662 19.4057 104.506 19.3034 104.334 19.2342L76.9314 8.1634C75.547 7.60607 73.998 7.62057 72.6242 8.20374C71.2504 8.78691 70.164 9.89112 69.6032 11.2742L48.5149 63.4722C47.9576 64.8566 47.9721 66.4056 48.5553 67.7794C49.1384 69.1532 50.2427 70.2396 51.6257 70.8004L88.1633 85.5618C89.5478 86.1191 91.0968 86.1046 92.4705 85.5214C93.8443 84.9383 94.9308 83.8341 95.4915 82.451L112.89 39.3869C113.029 39.041 113.026 38.6538 112.88 38.3105ZM103.84 24.2139L108.962 36.28L102.979 33.8625C102.287 33.5824 101.734 33.0391 101.443 32.352C101.151 31.6649 101.144 30.8901 101.423 30.1978L103.84 24.2139ZM98.4208 31.7104C98.493 32.7544 98.8608 33.7563 99.4811 34.5992C100.101 35.4421 100.949 36.0911 101.924 36.4705L109.754 39.6338C109.754 39.6338 98.387 30.635 98.4208 31.7104Z" fill="white"/>
<path d="M112.88 38.3105L105.103 19.9893C105.03 19.8191 104.925 19.6648 104.794 19.5353C104.662 19.4057 104.506 19.3034 104.334 19.2342L76.9314 8.1634C75.547 7.60607 73.998 7.62057 72.6242 8.20374C71.2504 8.78691 70.164 9.89112 69.6032 11.2742L48.5149 63.4722C47.9576 64.8566 47.9721 66.4056 48.5553 67.7794C49.1384 69.1532 50.2427 70.2396 51.6257 70.8004L88.1633 85.5618C89.5478 86.1191 91.0968 86.1046 92.4705 85.5214C93.8443 84.9383 94.9308 83.8341 95.4915 82.451L112.89 39.3869C113.029 39.041 113.026 38.6538 112.88 38.3105ZM103.84 24.2139L108.962 36.28L102.979 33.8625C102.287 33.5824 101.734 33.0391 101.443 32.352C101.151 31.6649 101.144 30.8901 101.423 30.1978L103.84 24.2139ZM92.8813 81.3964C92.6012 82.0884 92.0579 82.6408 91.3708 82.9325C90.6837 83.2242 89.9089 83.2312 89.2165 82.9521L52.6799 68.1911C51.9882 67.9108 51.4361 67.3675 51.1446 66.6805C50.8531 65.9935 50.8461 65.2189 51.1252 64.5267L72.2134 12.3287C72.4937 11.6372 73.0368 11.0851 73.7236 10.7936C74.4104 10.5021 75.1848 10.4949 75.8769 10.7736L101.975 21.3176L98.8121 29.1473C98.2548 30.5318 98.2693 32.0808 98.8525 33.4546C99.4357 34.8283 100.54 35.9148 101.923 36.4755L109.752 39.6384L92.8813 81.3964Z" fill="#F7B244"/>
<path d="M69.8123 45.34C68.9506 44.9918 68.2927 44.4571 67.8385 43.7358C67.3885 43.004 67.202 42.1647 67.2789 41.2179L69.192 41.2024C69.072 42.4373 69.5059 43.2543 70.4937 43.6534C71.0401 43.8742 71.5505 43.8665 72.0248 43.6303C72.5034 43.3836 72.8658 42.9555 73.112 42.346L76.2706 34.528L78.0202 35.2348L74.8871 42.9898C74.5645 43.7885 74.1362 44.4099 73.6022 44.8543C73.0682 45.2986 72.4738 45.5596 71.819 45.6373C71.1642 45.715 70.4953 45.6159 69.8123 45.34ZM80.4126 36.2014L84.3216 37.7806C84.9836 38.0481 85.5337 38.4414 85.9717 38.9607C86.4203 39.4841 86.7013 40.0744 86.8148 40.7314C86.9388 41.3927 86.8671 42.0543 86.5996 42.7163C86.3322 43.3783 85.9242 43.9041 85.3757 44.2937C84.8376 44.6875 84.2255 44.9169 83.5392 44.9818C82.8634 45.0511 82.1945 44.9519 81.5324 44.6845L79.3888 43.8184L77.6185 48.2003L75.8531 47.4871L80.4126 36.2014ZM82.239 43.0264C82.6278 43.1835 82.998 43.2353 83.3496 43.1818C83.7055 43.1178 84.0122 42.9789 84.2697 42.7651C84.5272 42.5513 84.7154 42.2973 84.8343 42.0031C84.9531 41.7089 84.9942 41.3954 84.9575 41.0628C84.9207 40.7301 84.7945 40.4224 84.5787 40.1397C84.3629 39.8569 84.0606 39.637 83.6718 39.4799L81.4966 38.6011L80.0638 42.1476L82.239 43.0264ZM90.3457 53.6356C89.2738 53.2025 88.3901 52.546 87.6944 51.666C86.9987 50.786 86.5634 49.7912 86.3883 48.6815C86.228 47.5655 86.3707 46.4558 86.8165 45.3525C87.2622 44.2491 87.9283 43.357 88.8145 42.6761C89.7155 41.9889 90.7219 41.5704 91.8336 41.4206C92.9454 41.2708 94.0371 41.4124 95.109 41.8454C95.9601 42.1893 96.6919 42.6622 97.3044 43.2641C97.9168 43.866 98.3596 44.5399 98.6328 45.2859L96.9066 46.0186C96.7044 45.4602 96.3904 44.9667 95.9647 44.538C95.5494 44.1135 95.0318 43.7761 94.4118 43.5256C93.6868 43.2327 92.9389 43.1322 92.1684 43.2243C91.3978 43.3163 90.6938 43.6064 90.0566 44.0946C89.4193 44.5828 88.933 45.2419 88.5976 46.0721C88.2622 46.9022 88.1542 47.7142 88.2735 48.508C88.3929 49.3019 88.6977 49.9995 89.1881 50.601C89.6785 51.2025 90.2915 51.6518 91.0271 51.949C91.6996 52.2207 92.3021 52.348 92.8346 52.3309C93.3671 52.3138 93.8799 52.2093 94.3731 52.0174C94.6977 51.8796 95.0088 51.6692 95.3065 51.3861C95.6147 51.1072 95.8779 50.7735 96.096 50.3849L92.2658 48.8375L92.9026 47.2613L98.4036 49.4837C98.3373 49.7992 98.2405 50.1145 98.1131 50.4297C97.8244 51.1443 97.436 51.788 96.9479 52.3609C96.464 52.9232 95.8827 53.3484 95.2041 53.6365C93.6885 54.3321 92.069 54.3318 90.3457 53.6356Z" fill="#F7B244"/>
<path d="M56.8861 19.2255L38.6864 7.85312C38.5175 7.74734 38.3294 7.67591 38.1328 7.64293C37.9362 7.60994 37.7351 7.61605 37.5408 7.66089L6.48865 14.8299C4.92101 15.1937 3.5617 16.1644 2.7089 17.5292C1.8561 18.894 1.57946 20.5413 1.93967 22.1097L15.5942 81.254C15.958 82.8216 16.9288 84.1809 18.2936 85.0337C19.6583 85.8865 21.3056 86.1632 22.8741 85.803L64.277 76.2444C65.8446 75.8805 67.204 74.9098 68.0568 73.545C68.9096 72.1802 69.1862 70.5329 68.826 68.9645L57.5611 20.1709C57.5163 19.9767 57.4336 19.7933 57.3178 19.631C57.202 19.4688 57.0553 19.331 56.8861 19.2255ZM40.1844 12.3679L52.1717 19.8583L45.39 21.424C44.6058 21.6042 43.7821 21.4659 43.0997 21.0395C42.4172 20.6131 41.9319 19.9334 41.7501 19.1495L40.1844 12.3679ZM40.0334 22.3384C40.7425 23.2169 41.6869 23.8755 42.7563 24.2373C43.8257 24.599 44.976 24.6489 46.0728 24.3812L54.9483 22.3321C54.9483 22.3321 39.3405 21.4084 40.0334 22.3384Z" fill="white"/>
<path d="M56.8861 19.2255L38.6864 7.85312C38.5175 7.74734 38.3294 7.67591 38.1328 7.64293C37.9362 7.60994 37.7351 7.61605 37.5408 7.66089L6.48865 14.8299C4.92101 15.1937 3.5617 16.1644 2.7089 17.5292C1.8561 18.894 1.57946 20.5413 1.93967 22.1097L15.5942 81.254C15.958 82.8216 16.9288 84.1809 18.2936 85.0337C19.6583 85.8865 21.3056 86.1632 22.8741 85.803L64.277 76.2444C65.8446 75.8805 67.204 74.9098 68.0568 73.545C68.9096 72.1802 69.1862 70.5329 68.826 68.9645L57.5611 20.1709C57.5163 19.9767 57.4336 19.7933 57.3178 19.631C57.202 19.4688 57.0553 19.331 56.8861 19.2255ZM40.1844 12.3679L52.1717 19.8583L45.39 21.424C44.6058 21.6042 43.7821 21.4659 43.0997 21.0395C42.4172 20.6131 41.9319 19.9334 41.7501 19.1495L40.1844 12.3679ZM65.8721 69.6485C66.0524 70.4327 65.9141 71.2564 65.4877 71.9388C65.0613 72.6213 64.3815 73.1066 63.5977 73.2884L22.1918 82.8477C21.4076 83.028 20.5838 82.8897 19.9014 82.4633C19.219 82.0369 18.7337 81.3571 18.5519 80.5732L4.89688 21.427C4.71664 20.6428 4.8549 19.8191 5.28132 19.1366C5.70774 18.4542 6.38749 17.9689 7.17137 17.7871L36.7445 10.9596L38.7927 19.8312C39.1565 21.3989 40.1272 22.7582 41.492 23.611C42.8568 24.4638 44.5041 24.7404 46.0725 24.3802L54.9481 22.3311L65.8721 69.6485Z" fill="#65E6FA"/>
<path d="M16.3525 43.5977L20.4605 42.6493C21.1562 42.4887 21.8324 42.4954 22.489 42.6695C23.1567 42.841 23.7255 43.1634 24.1953 43.6365C24.6761 44.107 24.9968 44.6902 25.1575 45.3859C25.3181 46.0816 25.2854 46.7463 25.0595 47.38C24.8447 48.0112 24.4748 48.5502 23.9498 48.9971C23.436 49.4414 22.8312 49.7439 22.1355 49.9045L19.8827 50.4246L20.9458 55.0294L19.0906 55.4577L16.3525 43.5977ZM21.7632 48.141C22.1718 48.0467 22.5048 47.8768 22.7622 47.6312C23.017 47.3747 23.1885 47.085 23.2769 46.7622C23.3652 46.4394 23.3736 46.1234 23.3023 45.8142C23.2309 45.505 23.0847 45.2247 22.8638 44.9732C22.643 44.7218 22.363 44.5422 22.0241 44.4343C21.6852 44.3265 21.3114 44.3197 20.9028 44.414L18.6169 44.9418L19.4774 48.6687L21.7632 48.141ZM26.2038 41.3234L28.4068 40.8148L35.6998 48.221L35.7992 48.1981L35.172 45.9351L33.7074 39.591L35.546 39.1665L38.2841 51.0266L36.3461 51.474L28.6849 43.6817L28.5855 43.7046L29.2126 45.9676L30.7805 52.7589L28.9419 53.1834L26.2038 41.3234ZM46.5078 49.4072C45.3814 49.6672 44.2809 49.6363 43.2063 49.3144C42.1317 48.9926 41.2044 48.4274 40.4245 47.6187C39.6531 46.7965 39.1336 45.8057 38.8659 44.6462C38.5982 43.4867 38.6321 42.3739 38.9675 41.3077C39.3115 40.228 39.8958 39.308 40.7206 38.5477C41.5453 37.7873 42.5209 37.2771 43.6473 37.0171C44.5418 36.8106 45.4125 36.7782 46.2594 36.92C47.1063 37.0618 47.8556 37.3599 48.5072 37.8143L47.5134 39.4046C47.0275 39.0631 46.4872 38.8389 45.8926 38.7319C45.309 38.6224 44.6914 38.6429 44.0399 38.7933C43.2779 38.9692 42.6077 39.3158 42.0293 39.8332C41.4509 40.3506 41.0406 40.992 40.7986 41.7574C40.5566 42.5228 40.5363 43.3417 40.7377 44.214C40.9391 45.0864 41.3163 45.8135 41.8694 46.3954C42.4224 46.9772 43.0723 47.3738 43.819 47.5853C44.5657 47.7967 45.3256 47.8132 46.0986 47.6348C46.8053 47.4716 47.3719 47.2303 47.7983 46.9109C48.2247 46.5914 48.5848 46.2117 48.8787 45.7716C49.0656 45.4726 49.1997 45.1218 49.2813 44.7191C49.3738 44.3139 49.398 43.8896 49.3538 43.4462L45.3286 44.3754L44.9462 42.719L50.7272 41.3844C50.8538 41.6808 50.9553 41.9947 51.0318 42.326C51.2052 43.0769 51.2562 43.827 51.1849 44.5762C51.1111 45.3144 50.8788 45.9961 50.4881 46.6214C49.6456 48.0605 48.3188 48.989 46.5078 49.4072Z" fill="#65E6FA"/>
</svg>
