<svg width="55" height="55" viewBox="0 0 55 55" fill="none" xmlns="http://www.w3.org/2000/svg">
<path d="M54.909 27.292C54.909 32.6898 53.3083 37.9664 50.3095 42.4545C47.3107 46.9426 43.0483 50.4407 38.0614 52.5064C33.0745 54.5721 27.587 55.1127 22.2929 54.0597C16.9988 53.0067 12.1359 50.4075 8.31896 46.5907C4.50206 42.774 1.90267 37.9111 0.849494 32.617C-0.203687 27.323 0.336643 21.8355 2.40216 16.8485C4.46767 11.8615 7.9656 7.59902 12.4536 4.60002C16.9416 1.60101 22.2182 0.000197798 27.616 1.83221e-08C31.2001 -0.000131307 34.7491 0.7057 38.0605 2.07719C41.3718 3.44869 44.3806 5.45898 46.915 7.99329C49.4494 10.5276 51.4598 13.5363 52.8314 16.8476C54.203 20.1589 54.909 23.7079 54.909 27.292Z" fill="#C9D1F9"/>
<path d="M41.006 34.1445C40.9755 33.9979 40.9164 33.8587 40.832 33.7349C40.7477 33.6112 40.6399 33.5052 40.5146 33.4231C40.3893 33.341 40.2491 33.2844 40.102 33.2565C39.9548 33.2286 39.8036 33.23 39.657 33.2605C39.5104 33.291 39.3712 33.3502 39.2474 33.4345C39.1237 33.5188 39.0177 33.6267 38.9356 33.7519C38.8535 33.8772 38.7969 34.0174 38.769 34.1645C38.7411 34.3117 38.7425 34.4629 38.773 34.6095C38.8036 34.7547 38.8015 34.9048 38.767 35.049C38.7324 35.1933 38.6661 35.328 38.573 35.4435C38.4818 35.5572 38.366 35.6487 38.2344 35.7112C38.1028 35.7737 37.9587 35.8056 37.813 35.8045H17.423C17.2773 35.8056 17.1333 35.7736 17.0016 35.7111C16.87 35.6486 16.7543 35.5571 16.663 35.4435C16.5695 35.3282 16.503 35.1935 16.4684 35.0492C16.4338 34.9049 16.432 34.7546 16.463 34.6095C16.9971 32.0962 18.3619 29.8359 20.3375 28.193C22.3131 26.5501 24.7844 25.6203 27.353 25.5535C27.441 25.5535 27.53 25.5595 27.619 25.5595C27.708 25.5595 27.786 25.5595 27.869 25.5545C29.6992 25.5936 31.493 26.0734 33.0984 26.9532C34.7037 27.833 36.0733 29.0868 37.091 30.6085C37.1744 30.7329 37.2815 30.8396 37.4061 30.9226C37.5307 31.0056 37.6705 31.0632 37.8174 31.0922C37.9643 31.1211 38.1155 31.1209 38.2623 31.0914C38.4091 31.062 38.5486 31.0039 38.673 30.9205C38.7974 30.8371 38.9041 30.7301 38.9871 30.6054C39.0701 30.4808 39.1277 30.341 39.1566 30.1941C39.1856 30.0472 39.1854 29.8961 39.1559 29.7492C39.1265 29.6024 39.0684 29.4629 38.985 29.3385C37.3233 26.855 34.8937 24.9843 32.068 24.0125C33.245 23.0872 34.1042 21.818 34.5262 20.3815C34.9481 18.945 34.9117 17.4128 34.4222 15.9979C33.9326 14.5831 33.0141 13.356 31.7946 12.4875C30.5751 11.6191 29.1152 11.1523 27.618 11.1523C26.1208 11.1523 24.6609 11.6191 23.4414 12.4875C22.2219 13.356 21.3034 14.5831 20.8138 15.9979C20.3243 17.4128 20.2879 18.945 20.7099 20.3815C21.1318 21.818 21.991 23.0872 23.168 24.0125C20.928 24.7819 18.9264 26.1201 17.3592 27.8959C15.792 29.6718 14.713 31.8242 14.228 34.1425C14.1279 34.6181 14.1352 35.1101 14.2492 35.5825C14.3633 36.055 14.5813 36.496 14.8874 36.8735C15.1935 37.2511 15.5799 37.5556 16.0185 37.7649C16.4572 37.9742 16.937 38.0831 17.423 38.0835H37.811C38.297 38.0831 38.7768 37.9742 39.2155 37.7649C39.6541 37.5556 40.0405 37.2511 40.3466 36.8735C40.6527 36.496 40.8707 36.055 40.9848 35.5825C41.0988 35.1101 41.1061 34.6181 41.006 34.1425V34.1445ZM22.706 18.3635C22.7059 17.4005 22.9887 16.4588 23.5194 15.6552C24.05 14.8516 24.8051 14.2216 25.6907 13.8436C26.5764 13.4655 27.5536 13.356 28.501 13.5286C29.4484 13.7013 30.3241 14.1485 31.0195 14.8146C31.7148 15.4808 32.1991 16.3366 32.4122 17.2757C32.6253 18.2148 32.5577 19.1959 32.2179 20.0969C31.8782 20.9979 31.2811 21.7793 30.501 22.3439C29.7209 22.9084 28.7921 23.2314 27.83 23.2725C27.759 23.2725 27.688 23.2725 27.617 23.2725H27.378C26.118 23.2097 24.9302 22.6652 24.0602 21.7516C23.1901 20.838 22.7043 19.6251 22.703 18.3635H22.706Z" fill="#091865"/>
</svg>
