<svg width="19" height="19" viewBox="0 0 19 19" fill="none" xmlns="http://www.w3.org/2000/svg">
<path opacity="0.099" d="M9.5 19C14.7467 19 19 14.7467 19 9.5C19 4.25329 14.7467 0 9.5 0C4.25329 0 0 4.25329 0 9.5C0 14.7467 4.25329 19 9.5 19Z" fill="black"/>
<path opacity="0.351" d="M13.8501 6.19542L8.39209 11.4474L6.18512 9.32442C6.05267 9.19887 5.87708 9.12889 5.69458 9.12889C5.51208 9.12889 5.33655 9.19887 5.2041 9.32442C5.13979 9.38517 5.08854 9.45841 5.05353 9.53966C5.01851 9.62091 5.00049 9.70845 5.00049 9.79692C5.00049 9.88539 5.01851 9.97294 5.05353 10.0542C5.08854 10.1354 5.13979 10.2087 5.2041 10.2694L7.90411 12.8694C8.03673 12.995 8.21242 13.0651 8.39508 13.0651C8.57774 13.0651 8.75349 12.995 8.88611 12.8694L14.8341 7.14641C14.8983 7.08567 14.9493 7.01251 14.9843 6.93135C15.0192 6.8502 15.0372 6.76277 15.0372 6.67443C15.0372 6.58608 15.0192 6.49865 14.9843 6.4175C14.9493 6.33635 14.8983 6.26315 14.8341 6.20241C14.7024 6.07504 14.5267 6.00327 14.3435 6.00197C14.1603 6.00067 13.9836 6.06994 13.8501 6.19542Z" fill="black"/>
</svg>
