<svg width="57" height="50" viewBox="0 0 57 50" fill="none" xmlns="http://www.w3.org/2000/svg">
<path d="M51.9398 49.7419H4.40579C3.63093 49.7424 2.86968 49.5383 2.19903 49.1502C1.52838 48.7621 0.972113 48.2037 0.586496 47.5316C0.200878 46.8595 -0.000416331 46.0975 0.00297176 45.3227C0.00635985 44.5478 0.21431 43.7876 0.60579 43.1189L24.3698 2.39993C24.757 1.73456 25.3119 1.18241 25.9793 0.798639C26.6466 0.414864 27.403 0.212891 28.1728 0.212891C28.9426 0.212891 29.699 0.414864 30.3663 0.798639C31.0336 1.18241 31.5886 1.73456 31.9758 2.39993L55.7428 43.1179C56.1347 43.7869 56.3428 44.5475 56.3462 45.3227C56.3496 46.098 56.1481 46.8604 55.7621 47.5327C55.3761 48.205 54.8193 48.7634 54.1481 49.1514C53.4768 49.5393 52.715 49.7431 51.9398 49.7419Z" fill="#FF6B6B"/>
<path d="M27.5968 4.28406L3.82882 45.0021C3.76987 45.1031 3.73864 45.218 3.73828 45.335C3.73793 45.4521 3.76846 45.5671 3.82679 45.6685C3.88512 45.77 3.96919 45.8543 4.07051 45.9128C4.17182 45.9714 4.2868 46.0022 4.40382 46.0021H51.9388C52.0558 46.0022 52.1708 45.9714 52.2721 45.9128C52.3735 45.8543 52.4575 45.77 52.5159 45.6685C52.5742 45.5671 52.6047 45.4521 52.6044 45.335C52.604 45.218 52.5728 45.1031 52.5138 45.0021L28.7468 4.28406C28.6883 4.18339 28.6044 4.09984 28.5035 4.04176C28.4026 3.98369 28.2882 3.95312 28.1718 3.95312C28.0554 3.95312 27.941 3.98369 27.8401 4.04176C27.7392 4.09984 27.6553 4.18339 27.5968 4.28406Z" fill="#EE5253"/>
<path d="M28.1838 36.2207C28.7097 36.2207 29.2141 36.4296 29.586 36.8015C29.9579 37.1734 30.1668 37.6778 30.1668 38.2037C30.1668 38.7296 29.9579 39.234 29.586 39.6059C29.2141 39.9778 28.7097 40.1867 28.1838 40.1867C27.6509 40.1966 27.1358 39.9948 26.7515 39.6255C26.3672 39.2562 26.1451 38.7496 26.1338 38.2167C26.1481 37.6825 26.3704 37.175 26.7533 36.8022C27.1361 36.4294 27.6494 36.2208 28.1838 36.2207Z" fill="white"/>
<path d="M28.1878 33.1388C27.0508 33.1388 26.2568 32.5878 26.2568 31.7998V20.6658C26.2568 20.0068 27.0328 19.3008 28.1878 19.3008C29.2288 19.3008 30.1428 19.9388 30.1428 20.6658V31.7988C30.1388 32.5748 29.3168 33.1388 28.1878 33.1388Z" fill="white"/>
<path d="M2.87086 43.1189L26.6369 2.4009C26.9248 1.90156 27.309 1.46432 27.7672 1.1145C28.2253 0.764668 28.7483 0.509204 29.3059 0.362897C28.3734 0.112724 27.3844 0.176793 26.492 0.54519C25.5995 0.913587 24.8534 1.56579 24.3689 2.4009L0.602861 43.1189C0.21138 43.7876 0.00343017 44.5478 4.20737e-05 45.3227C-0.00334602 46.0975 0.197948 46.8595 0.583566 47.5316C0.969184 48.2037 1.52545 48.762 2.1961 49.1502C2.86675 49.5383 3.628 49.7424 4.40286 49.7419H6.67386C5.89875 49.7429 5.13712 49.5392 4.46605 49.1513C3.79498 48.7634 3.23828 48.2051 2.85231 47.5329C2.46634 46.8607 2.26478 46.0985 2.26804 45.3234C2.27129 44.5483 2.47925 43.7878 2.87086 43.1189Z" fill="#EE5253"/>
<path d="M6.0988 45.0021L29.3068 5.24106L28.7478 4.28406C28.6893 4.18339 28.6054 4.09984 28.5045 4.04176C28.4036 3.98369 28.2892 3.95312 28.1728 3.95312C28.0564 3.95312 27.942 3.98369 27.8411 4.04176C27.7402 4.09984 27.6563 4.18339 27.5978 4.28406L3.8298 45.0021C3.77085 45.1031 3.73962 45.218 3.73926 45.335C3.7389 45.4521 3.76943 45.5671 3.82777 45.6685C3.8861 45.77 3.97017 45.8543 4.07148 45.9128C4.1728 45.9714 4.28778 46.0022 4.4048 46.0021H6.6728C6.55574 46.0023 6.44071 45.9716 6.33935 45.913C6.23799 45.8544 6.15391 45.7701 6.09564 45.6686C6.03736 45.5671 6.00697 45.452 6.00752 45.3349C6.00808 45.2178 6.03957 45.103 6.0988 45.0021Z" fill="#E24951"/>
<path d="M28.4018 38.2167C28.4067 37.8886 28.4923 37.5667 28.651 37.2795C28.8097 36.9923 29.0366 36.7485 29.3118 36.5697C28.9794 36.3435 28.5869 36.2219 28.1848 36.2207C27.6497 36.2208 27.1359 36.43 26.7529 36.8036C26.3699 37.1773 26.1481 37.6858 26.1348 38.2207C26.1479 38.5835 26.2574 38.9362 26.4521 39.2426C26.6467 39.5491 26.9195 39.7981 27.2423 39.9642C27.5651 40.1303 27.9263 40.2074 28.2888 40.1877C28.6513 40.1679 29.002 40.0519 29.3048 39.8517C29.0294 39.6765 28.8024 39.4351 28.6447 39.1494C28.4869 38.8637 28.4034 38.543 28.4018 38.2167Z" fill="white"/>
<path d="M28.5209 31.7989V20.6659C28.5431 20.4284 28.6284 20.2011 28.7681 20.0077C28.9077 19.8143 29.0965 19.6617 29.3149 19.5659C28.9645 19.3882 28.5769 19.296 28.1839 19.2969C27.0289 19.2969 26.2529 20.0029 26.2529 20.6619V31.7949C26.2529 32.5829 27.0469 33.1339 28.1839 33.1339C28.5739 33.1403 28.9607 33.0625 29.3179 32.9059C29.091 32.82 28.8945 32.6693 28.7527 32.4724C28.611 32.2755 28.5304 32.0413 28.5209 31.7989Z" fill="white"/>
</svg>
