<svg width="14" height="17" viewBox="0 0 14 17" fill="none" xmlns="http://www.w3.org/2000/svg">
<path d="M8.476 16.014H2.5C1.83696 16.014 1.20107 15.7506 0.732233 15.2818C0.263392 14.8129 0 14.177 0 13.514L0 5.036C0.00132131 4.37336 0.265138 3.73825 0.733693 3.26969C1.20225 2.80114 1.83736 2.53732 2.5 2.536H8.476C9.13863 2.53732 9.77375 2.80114 10.2423 3.26969C10.7109 3.73825 10.9747 4.37336 10.976 5.036V13.512C10.9752 14.175 10.7116 14.8106 10.243 15.2796C9.7744 15.7486 9.13898 16.0127 8.476 16.014ZM2.5 3.785C2.16872 3.78606 1.85135 3.91826 1.61729 4.1527C1.38322 4.38713 1.25153 4.70472 1.251 5.036V13.512C1.25153 13.8433 1.38322 14.1609 1.61729 14.3953C1.85135 14.6297 2.16872 14.7619 2.5 14.763H8.476C8.80762 14.7625 9.12551 14.6305 9.36001 14.396C9.5945 14.1615 9.72647 13.8436 9.727 13.512V5.036C9.72647 4.70438 9.5945 4.38649 9.36001 4.15199C9.12551 3.9175 8.80762 3.78553 8.476 3.785H2.5ZM13.478 11.948V2.5C13.4767 1.83736 13.2129 1.20225 12.7443 0.733693C12.2758 0.265138 11.6406 0.00132131 10.978 0L4.035 0C3.87343 0.00646132 3.72064 0.0751881 3.60861 0.191785C3.49658 0.308383 3.43402 0.463805 3.43402 0.6255C3.43402 0.787195 3.49658 0.942617 3.60861 1.05921C3.72064 1.17581 3.87343 1.24454 4.035 1.251H10.979C11.3103 1.25153 11.6279 1.38322 11.8623 1.61729C12.0967 1.85135 12.2289 2.16872 12.23 2.5V11.946C12.2266 12.0302 12.2403 12.1143 12.2702 12.1931C12.3001 12.272 12.3457 12.3439 12.4041 12.4047C12.4625 12.4655 12.5326 12.5139 12.6102 12.5469C12.6877 12.58 12.7712 12.597 12.8555 12.597C12.9398 12.597 13.0233 12.58 13.1008 12.5469C13.1784 12.5139 13.2485 12.4655 13.3069 12.4047C13.3653 12.3439 13.4109 12.272 13.4408 12.1931C13.4707 12.1143 13.4844 12.0302 13.481 11.946L13.478 11.948Z" fill="#0C28A8"/>
</svg>
