<svg width="123" height="50" viewBox="0 0 123 50" fill="none" xmlns="http://www.w3.org/2000/svg">
<path fill-rule="evenodd" clip-rule="evenodd" d="M0 1.71638C0 0.768455 0.76832 0 1.71656 0H35.8892C36.837 0 37.6058 0.768459 37.6058 1.71638V35.8892C37.6058 36.8372 36.837 37.6056 35.8892 37.6056H1.71656C0.76832 37.6056 0 36.8372 0 35.8892V1.71638ZM42.5536 1.71638C42.5536 0.768455 43.3223 0 44.2701 0H78.4428C79.391 0 80.1593 0.768459 80.1593 1.71638V35.8892C80.1593 36.8372 79.391 37.6056 78.4428 37.6056H44.2701C43.3223 37.6056 42.5536 36.8372 42.5536 35.8892V1.71638ZM86.8237 0C85.8754 0 85.1076 0.768455 85.1076 1.71638V35.8892C85.1076 36.8372 85.8754 37.6056 86.8237 37.6056H120.997C121.945 37.6056 122.713 36.8372 122.713 35.8892V1.71638C122.713 0.768459 121.945 0 120.997 0H86.8237Z" fill="url(#paint0_linear_485_12074)"/>
<path d="M103.635 32.1528C101.723 32.1528 99.9439 31.8259 98.2979 31.1724C96.6515 30.4947 95.2117 29.5627 93.9768 28.3766C92.7424 27.1663 91.7739 25.7744 91.0719 24.201C90.3944 22.6034 90.0552 20.8848 90.0552 19.0452C90.0552 17.2055 90.3944 15.4989 91.0719 13.9255C91.7739 12.328 92.7424 10.9361 93.9768 9.74994C95.2117 8.53971 96.6515 7.6077 98.2979 6.95417C99.9439 6.27638 101.723 5.9375 103.635 5.9375C105.547 5.9375 107.327 6.27638 108.973 6.95417C110.619 7.6077 112.059 8.53971 113.293 9.74994C114.528 10.9361 115.484 12.328 116.162 13.9255C116.864 15.4989 117.214 17.2055 117.214 19.0452C117.214 20.8848 116.864 22.6034 116.162 24.201C115.484 25.7744 114.528 27.1663 113.293 28.3766C112.059 29.5627 110.619 30.4947 108.973 31.1724C107.327 31.8259 105.547 32.1528 103.635 32.1528ZM103.635 26.4159C104.651 26.4159 105.595 26.2344 106.467 25.8713C107.339 25.484 108.089 24.9635 108.718 24.31C109.372 23.6563 109.88 22.8818 110.244 21.9862C110.606 21.0663 110.788 20.086 110.788 19.0452C110.788 17.98 110.606 16.9997 110.244 16.1041C109.88 15.2085 109.372 14.4338 108.718 13.7803C108.089 13.1268 107.339 12.6184 106.467 12.2553C105.595 11.868 104.651 11.6744 103.635 11.6744C102.618 11.6744 101.674 11.868 100.803 12.2553C99.9314 12.6184 99.1691 13.1268 98.5157 13.7803C97.886 14.4338 97.3897 15.2085 97.0269 16.1041C96.6636 16.9997 96.4824 17.98 96.4824 19.0452C96.4824 20.086 96.6636 21.0663 97.0269 21.9862C97.3897 22.8818 97.886 23.6563 98.5157 24.31C99.1691 24.9635 99.9314 25.484 100.803 25.8713C101.674 26.2344 102.618 26.4159 103.635 26.4159Z" fill="white"/>
<path d="M55.7265 25.8349H59.6477C60.6403 25.8349 61.5601 25.6534 62.4072 25.2903C63.2788 24.9272 64.0411 24.4189 64.6945 23.7653C65.3483 23.1118 65.8567 22.3614 66.2195 21.5141C66.5828 20.6427 66.7644 19.7108 66.7644 18.7183C66.7644 17.7017 66.5828 16.7576 66.2195 15.8862C65.8567 14.9906 65.3483 14.216 64.6945 13.5624C64.0411 12.9089 63.2788 12.4006 62.4072 12.0375C61.5601 11.6502 60.6403 11.4565 59.6477 11.4565H55.7265V25.8349ZM49.481 31.354V5.9375H59.7928C61.6811 5.9375 63.4359 6.26428 65.0578 6.91785C66.6796 7.57145 68.0957 8.47919 69.3061 9.64109C70.541 10.8029 71.4966 12.1585 72.1741 13.7077C72.8765 15.2569 73.2273 16.9271 73.2273 18.7183C73.2273 20.4854 72.8765 22.1314 72.1741 23.6564C71.4966 25.1814 70.541 26.5248 69.3061 27.6868C68.0957 28.8244 66.6796 29.7201 65.0578 30.3736C63.4359 31.0272 61.6811 31.354 59.7928 31.354H49.481Z" fill="white"/>
<path d="M4.94824 31.354L15.3689 5.9375H22.5218L32.7975 31.354H26.0436L23.7201 25.2177H13.8073L11.4473 31.354H4.94824ZM15.6956 20.2433H21.868L18.8184 12.1101L15.6956 20.2433Z" fill="white"/>
<path d="M48.6605 2.69126C48.4526 2.64115 47.8599 2.08603 45.5476 2.575C44.7673 2.73989 42.5975 3.73673 39.8466 5.00477L32.7987 3.1058L30.8046 3.57635L36.6399 6.47482C34.8454 7.28898 32.9533 8.1253 31.1231 8.87343L26.833 6.59349L25.7793 7.03033L29.6545 10.9249L28.9425 13.0664L30.3212 12.7221L31.0792 11.2539C33.249 10.9226 35.8272 10.3359 38.7757 9.34096L38.13 14.8293L39.6968 13.9043L41.6075 8.3295C49.4443 5.37012 49.9535 3.78963 50.0555 3.35326C50.1674 2.8729 48.8688 2.74136 48.6605 2.69126Z" fill="white"/>
<path d="M119.912 47.8566V43.2161H121.132V43.7326C121.28 43.5308 121.459 43.3767 121.667 43.2695C121.874 43.1627 122.109 43.1094 122.37 43.1094C122.596 43.1154 122.765 43.1507 122.877 43.2161V44.2849C122.789 44.2436 122.691 44.2139 122.584 44.1958C122.477 44.1721 122.367 44.1605 122.254 44.1605C122.016 44.1605 121.8 44.2195 121.604 44.3383C121.408 44.4571 121.251 44.6262 121.132 44.8462V47.8566H119.912Z" fill="#133769"/>
<path d="M116.965 47.9454C116.501 47.9454 116.08 47.8386 115.7 47.6247C115.325 47.4108 115.029 47.1228 114.809 46.7608C114.589 46.3984 114.479 45.9916 114.479 45.5406C114.479 45.089 114.583 44.6823 114.791 44.3203C115.005 43.9583 115.293 43.6699 115.655 43.4564C116.017 43.2425 116.421 43.1357 116.867 43.1357C117.311 43.1357 117.707 43.2455 118.051 43.465C118.395 43.685 118.665 43.982 118.861 44.356C119.063 44.7301 119.164 45.1545 119.164 45.6297V45.9503H115.727C115.78 46.1341 115.866 46.3007 115.984 46.4488C116.109 46.5973 116.261 46.713 116.439 46.7961C116.623 46.8796 116.819 46.9209 117.027 46.9209C117.234 46.9209 117.425 46.8882 117.597 46.8228C117.775 46.7578 117.927 46.6657 118.051 46.5469L118.852 47.2773C118.567 47.5089 118.274 47.6781 117.971 47.7848C117.673 47.892 117.338 47.9454 116.965 47.9454ZM115.709 45.0774H117.962C117.92 44.8932 117.843 44.7331 117.731 44.5962C117.624 44.4537 117.493 44.344 117.338 44.2669C117.19 44.1838 117.024 44.1421 116.84 44.1421C116.649 44.1421 116.477 44.1808 116.324 44.2579C116.169 44.3349 116.038 44.4451 115.931 44.5876C115.83 44.724 115.756 44.8872 115.709 45.0774Z" fill="#133769"/>
<path d="M110.147 47.8563V46.992L112.481 44.2402H110.165V43.2158H114.039V44.0797L111.705 46.8319H114.102V47.8563H110.147Z" fill="#133769"/>
<path d="M108.213 47.8561V43.2161H109.433V47.8561H108.213ZM108.819 42.6638C108.629 42.6638 108.466 42.5954 108.329 42.459C108.193 42.3221 108.125 42.1589 108.125 41.9691C108.125 41.7729 108.193 41.6097 108.329 41.4793C108.466 41.3424 108.629 41.2744 108.819 41.2744C109.015 41.2744 109.178 41.3424 109.309 41.4793C109.445 41.6097 109.513 41.7729 109.513 41.9691C109.513 42.1589 109.445 42.3221 109.309 42.459C109.178 42.5954 109.015 42.6638 108.819 42.6638Z" fill="#133769"/>
<path d="M100.151 47.8561V43.2161H101.371V43.572C101.703 43.2755 102.107 43.127 102.582 43.127C102.885 43.127 103.155 43.1894 103.392 43.3138C103.63 43.4326 103.826 43.6017 103.981 43.8217C104.17 43.5961 104.393 43.424 104.648 43.3052C104.909 43.1864 105.197 43.127 105.512 43.127C105.863 43.127 106.168 43.207 106.429 43.3671C106.697 43.5217 106.905 43.7386 107.053 44.0175C107.207 44.2908 107.285 44.6115 107.285 44.9795V47.8561H106.073V45.1577C106.073 44.8547 105.993 44.6171 105.832 44.4449C105.672 44.2667 105.459 44.1781 105.191 44.1781C105.007 44.1781 104.838 44.2164 104.684 44.2934C104.535 44.3709 104.408 44.4867 104.301 44.6408C104.306 44.6946 104.313 44.748 104.318 44.8013C104.325 44.8547 104.328 44.9141 104.328 44.9795V47.8561H103.108V45.1577C103.108 44.8547 103.028 44.6171 102.867 44.4449C102.713 44.2667 102.502 44.1781 102.235 44.1781C102.051 44.1781 101.884 44.2134 101.735 44.2848C101.593 44.3558 101.471 44.463 101.371 44.6055V47.8561H100.151Z" fill="#133769"/>
<path d="M97.976 47.8561V43.2161H99.1959V47.8561H97.976ZM98.5816 42.6638C98.3914 42.6638 98.2282 42.5954 98.0918 42.459C97.9549 42.3221 97.8865 42.1589 97.8865 41.9691C97.8865 41.7729 97.9549 41.6097 98.0918 41.4793C98.2282 41.3424 98.3914 41.2744 98.5816 41.2744C98.777 41.2744 98.941 41.3424 99.0715 41.4793C99.2079 41.6097 99.2763 41.7729 99.2763 41.9691C99.2763 42.1589 99.2079 42.3221 99.0715 42.459C98.941 42.5954 98.777 42.6638 98.5816 42.6638Z" fill="#133769"/>
<path d="M96.4005 47.9272C95.884 47.9272 95.4928 47.8115 95.225 47.5799C94.9642 47.3423 94.8333 46.9979 94.8333 46.5469V44.2311H93.8804V43.2158H94.8333V42.0312L96.0536 41.7549V43.2158H97.3806V44.2311H96.0536V46.2972C96.0536 46.5111 96.1005 46.6657 96.1961 46.7603C96.2912 46.8494 96.4569 46.8942 96.6945 46.8942C96.8133 46.8942 96.9201 46.8882 97.0152 46.8761C97.1163 46.8585 97.2257 46.8288 97.3445 46.7875V47.7938C97.2201 47.8351 97.063 47.8678 96.8731 47.8915C96.6889 47.9152 96.5314 47.9272 96.4005 47.9272Z" fill="#133769"/>
<path d="M88.7649 49.674V43.2167H89.9671V43.5994C90.3472 43.3028 90.7866 43.1543 91.2855 43.1543C91.725 43.1543 92.1227 43.261 92.4791 43.475C92.8355 43.6885 93.117 43.9764 93.3253 44.3388C93.5388 44.6952 93.6455 45.096 93.6455 45.541C93.6455 45.9865 93.5388 46.3903 93.3253 46.7527C93.1114 47.1087 92.8234 47.3936 92.4614 47.6075C92.0986 47.8154 91.6953 47.9192 91.2498 47.9192C91.0186 47.9192 90.7957 47.8895 90.5822 47.8301C90.3682 47.7651 90.1694 47.6729 89.9852 47.5541V49.674H88.7649ZM91.0892 46.8861C91.3445 46.8861 91.5739 46.8267 91.7753 46.7079C91.9836 46.5891 92.1463 46.429 92.2651 46.2271C92.3839 46.0253 92.4429 45.7967 92.4429 45.541C92.4429 45.2858 92.3839 45.0572 92.2651 44.8554C92.1463 44.6475 91.9836 44.4873 91.7753 44.3746C91.5739 44.2558 91.3445 44.1964 91.0892 44.1964C90.8637 44.1964 90.6558 44.2347 90.4659 44.3122C90.2817 44.3832 90.1216 44.4934 89.9852 44.6414V46.4497C90.116 46.5861 90.2761 46.6933 90.4659 46.7703C90.6622 46.8474 90.8701 46.8861 91.0892 46.8861Z" fill="#133769"/>
<path d="M84.6547 47.9541C84.1915 47.9541 83.7607 47.8736 83.363 47.7134C82.9653 47.5473 82.6149 47.3187 82.3123 47.0278C82.0157 46.7308 81.7807 46.3894 81.6085 46.0033C81.4428 45.6117 81.3589 45.1898 81.3589 44.7387C81.3589 44.2872 81.4428 43.8688 81.6085 43.4828C81.7807 43.0911 82.0157 42.7493 82.3123 42.4583C82.6149 42.1618 82.9653 41.9332 83.363 41.7727C83.7607 41.6065 84.1915 41.5234 84.6547 41.5234C85.1178 41.5234 85.5483 41.6065 85.946 41.7727C86.3501 41.9332 86.7001 42.1618 86.9975 42.4583C87.2997 42.7493 87.5343 43.0911 87.7008 43.4828C87.867 43.8688 87.9505 44.2872 87.9505 44.7387C87.9505 45.1898 87.867 45.6117 87.7008 46.0033C87.5343 46.3894 87.2997 46.7308 86.9975 47.0278C86.7001 47.3187 86.3501 47.5473 85.946 47.7134C85.5483 47.8736 85.1178 47.9541 84.6547 47.9541ZM84.6547 46.7691C84.9396 46.7691 85.2009 46.7187 85.4385 46.618C85.6761 46.5108 85.884 46.3684 86.0618 46.1906C86.2404 46.0064 86.3794 45.7894 86.481 45.5402C86.5813 45.291 86.6321 45.0237 86.6321 44.7387C86.6321 44.4478 86.5813 44.1805 86.481 43.9369C86.3794 43.6876 86.2404 43.4737 86.0618 43.2959C85.884 43.1117 85.6761 42.9693 85.4385 42.8681C85.2009 42.7614 84.9396 42.708 84.6547 42.708C84.3758 42.708 84.1171 42.7614 83.8795 42.8681C83.6427 42.9693 83.4344 43.1117 83.2562 43.2959C83.0784 43.4737 82.9386 43.6876 82.8378 43.9369C82.7367 44.1805 82.6859 44.4448 82.6859 44.7297C82.6859 45.0207 82.7367 45.291 82.8378 45.5402C82.9386 45.7894 83.0784 46.0064 83.2562 46.1906C83.4344 46.3684 83.6427 46.5108 83.8795 46.618C84.1171 46.7187 84.3758 46.7691 84.6547 46.7691Z" fill="#133769"/>
<path d="M74.4478 47.8561V43.2161H75.6685V43.5987C76.0184 43.2841 76.4523 43.127 76.9688 43.127C77.3308 43.127 77.6484 43.207 77.9217 43.3671C78.2011 43.5217 78.4176 43.7386 78.5721 44.0175C78.7258 44.2908 78.8033 44.6115 78.8033 44.9795V47.8561H77.583V45.1577C77.583 44.8547 77.4973 44.6171 77.3252 44.4449C77.153 44.2667 76.9184 44.1781 76.621 44.1781C76.4135 44.1781 76.2293 44.2194 76.0692 44.3025C75.9091 44.3795 75.7752 44.4927 75.6685 44.6408V47.8561H74.4478Z" fill="#133769"/>
<path d="M71.2224 47.9452C70.7592 47.9452 70.3404 47.8384 69.9664 47.6245C69.5923 47.411 69.2953 47.1231 69.0758 46.7606C68.8558 46.3986 68.7461 45.9919 68.7461 45.5404C68.7461 45.0893 68.8533 44.6825 69.0668 44.3201C69.2867 43.9521 69.5833 43.6611 69.9573 43.4476C70.3378 43.2337 70.7592 43.127 71.2224 43.127C71.6851 43.127 72.1039 43.2337 72.4779 43.4476C72.858 43.6611 73.1546 43.9521 73.3685 44.3201C73.5884 44.6825 73.6982 45.0893 73.6982 45.5404C73.6982 45.9919 73.5884 46.3986 73.3685 46.7606C73.1546 47.1231 72.861 47.411 72.487 47.6245C72.1129 47.8384 71.6915 47.9452 71.2224 47.9452ZM71.2224 46.8855C71.4655 46.8855 71.6821 46.8261 71.8727 46.7073C72.0682 46.5885 72.2227 46.4284 72.3359 46.2265C72.4547 46.0186 72.5136 45.79 72.5136 45.5404C72.5136 45.2851 72.4547 45.0566 72.3359 44.8547C72.2227 44.6528 72.0682 44.4927 71.8727 44.3739C71.6821 44.2491 71.4655 44.1867 71.2224 44.1867C70.9848 44.1867 70.7678 44.2491 70.5715 44.3739C70.3761 44.4927 70.2216 44.6528 70.1088 44.8547C69.9961 45.0566 69.9397 45.2851 69.9397 45.5404C69.9397 45.79 69.9961 46.0186 70.1088 46.2265C70.2216 46.4284 70.3761 46.5885 70.5715 46.7073C70.7678 46.8261 70.9848 46.8855 71.2224 46.8855Z" fill="#133769"/>
<path d="M66.7856 47.8561V43.2161H68.0059V47.8561H66.7856ZM67.3912 42.6638C67.2014 42.6638 67.0379 42.5954 66.9014 42.459C66.765 42.3221 66.6965 42.1589 66.6965 41.9691C66.6965 41.7729 66.765 41.6097 66.9014 41.4793C67.0379 41.3424 67.2014 41.2744 67.3912 41.2744C67.5871 41.2744 67.7506 41.3424 67.8811 41.4793C68.0175 41.6097 68.086 41.7729 68.086 41.9691C68.086 42.1589 68.0175 42.3221 67.8811 42.459C67.7506 42.5954 67.5871 42.6638 67.3912 42.6638Z" fill="#133769"/>
<path d="M65.2105 47.9272C64.694 47.9272 64.3019 47.8115 64.035 47.5799C63.7738 47.3423 63.6429 46.9979 63.6429 46.5469V44.2311H62.6899V43.2158H63.6429V42.0312L64.8632 41.7549V43.2158H66.1902V44.2311H64.8632V46.2972C64.8632 46.5111 64.9105 46.6657 65.0057 46.7603C65.1008 46.8494 65.2669 46.8942 65.5045 46.8942C65.6233 46.8942 65.7301 46.8882 65.8252 46.8761C65.9259 46.8585 66.0357 46.8288 66.1545 46.7875V47.7938C66.0301 47.8351 65.8725 47.8678 65.6827 47.8915C65.4985 47.9152 65.3414 47.9272 65.2105 47.9272Z" fill="#133769"/>
<path d="M59.53 47.945C59.1736 47.945 58.8559 47.8679 58.577 47.7138C58.3037 47.5533 58.0872 47.3337 57.9267 47.0544C57.7726 46.7755 57.6951 46.4548 57.6951 46.0928V43.2158H58.9153V45.9146C58.9153 46.2112 59.0014 46.4488 59.1736 46.627C59.3518 46.8052 59.5894 46.8943 59.8864 46.8943C60.0883 46.8943 60.269 46.8555 60.4296 46.7785C60.5957 46.6954 60.7322 46.5796 60.8394 46.4311V43.2158H62.0596V47.8563H60.8394V47.4818C60.483 47.7909 60.0465 47.945 59.53 47.945Z" fill="#133769"/>
<path d="M52.1121 47.8562V41.6214L53.3323 41.417V43.5898C53.7003 43.2993 54.1338 43.1538 54.6327 43.1538C55.0721 43.1538 55.4698 43.2605 55.8262 43.4744C56.1826 43.6879 56.4646 43.9759 56.6725 44.3383C56.886 44.6943 56.9927 45.0954 56.9927 45.5405C56.9927 45.986 56.886 46.3897 56.6725 46.7517C56.4585 47.1081 56.1706 47.3931 55.8086 47.607C55.4462 47.8149 55.0424 47.9186 54.5969 47.9186C54.3654 47.9186 54.1398 47.8859 53.9203 47.8205C53.7003 47.7555 53.4985 47.6604 53.3147 47.5356V47.8562H52.1121ZM54.4368 46.8856C54.6921 46.8856 54.9206 46.8262 55.1225 46.7074C55.3304 46.5886 55.4935 46.4285 55.6123 46.2262C55.7311 46.0243 55.7905 45.7958 55.7905 45.5405C55.7905 45.2853 55.7311 45.0567 55.6123 44.8548C55.4935 44.6469 55.3304 44.4868 55.1225 44.374C54.9206 44.2552 54.6921 44.1958 54.4368 44.1958C54.2113 44.1958 54.0034 44.2342 53.8131 44.3116C53.6293 44.3827 53.4688 44.4924 53.3323 44.6409V46.4491C53.4627 46.5856 53.6233 46.6923 53.8131 46.7698C54.0094 46.8469 54.2169 46.8856 54.4368 46.8856Z" fill="#133769"/>
<path d="M49.9375 47.8561V43.2161H51.1578V47.8561H49.9375ZM50.5431 42.6638C50.3533 42.6638 50.1901 42.5954 50.0533 42.459C49.9168 42.3221 49.8484 42.1589 49.8484 41.9691C49.8484 41.7729 49.9168 41.6097 50.0533 41.4793C50.1901 41.3424 50.3533 41.2744 50.5431 41.2744C50.7394 41.2744 50.9025 41.3424 51.0334 41.4793C51.1698 41.6097 51.2378 41.7729 51.2378 41.9691C51.2378 42.1589 51.1698 42.3221 51.0334 42.459C50.9025 42.5954 50.7394 42.6638 50.5431 42.6638Z" fill="#133769"/>
<path d="M46.3022 47.8566V43.2161H47.5221V43.7326C47.6706 43.5308 47.8488 43.3767 48.0567 43.2695C48.2646 43.1627 48.4992 43.1094 48.7604 43.1094C48.986 43.1154 49.1551 43.1507 49.2679 43.2161V44.2849C49.1788 44.2436 49.0811 44.2139 48.9739 44.1958C48.8672 44.1721 48.7574 44.1605 48.6447 44.1605C48.4071 44.1605 48.1901 44.2195 47.9943 44.3383C47.7984 44.4571 47.6409 44.6262 47.5221 44.8462V47.8566H46.3022Z" fill="#133769"/>
<path d="M44.7271 47.9272C44.2102 47.9272 43.8185 47.8115 43.5512 47.5799C43.2899 47.3423 43.1595 46.9979 43.1595 46.5469V44.2311H42.2065V43.2158H43.1595V42.0312L44.3798 41.7549V43.2158H45.7068V44.2311H44.3798V46.2972C44.3798 46.5111 44.4271 46.6657 44.5223 46.7603C44.617 46.8494 44.7835 46.8942 45.0211 46.8942C45.1395 46.8942 45.2467 46.8882 45.3414 46.8761C45.4425 46.8585 45.5523 46.8288 45.6711 46.7875V47.7938C45.5462 47.8351 45.3891 47.8678 45.1989 47.8915C45.0151 47.9152 44.8576 47.9272 44.7271 47.9272Z" fill="#133769"/>
<path d="M39.9759 47.9454C39.5485 47.9454 39.1538 47.892 38.7914 47.7848C38.4294 47.672 38.1147 47.5119 37.8474 47.304L38.453 46.4935C38.7203 46.6717 38.9756 46.8052 39.2192 46.8943C39.4684 46.9834 39.7151 47.0277 39.9582 47.0277C40.2316 47.0277 40.4481 46.9834 40.6086 46.8943C40.7748 46.7991 40.8578 46.6777 40.8578 46.5292C40.8578 46.4104 40.8105 46.3153 40.7154 46.2443C40.6263 46.1729 40.4808 46.1225 40.2789 46.0928L39.3884 45.9589C38.9252 45.8879 38.5748 45.7394 38.3372 45.5139C38.0996 45.2823 37.9809 44.9793 37.9809 44.6052C37.9809 44.3026 38.0583 44.0444 38.2124 43.8305C38.373 43.6109 38.5955 43.4413 38.8805 43.3225C39.1714 43.1982 39.5158 43.1357 39.9139 43.1357C40.2522 43.1357 40.5819 43.1831 40.9022 43.2782C41.2289 43.3733 41.5349 43.5188 41.8198 43.7147L41.2319 44.5071C40.9766 44.347 40.733 44.2312 40.5014 44.1597C40.2699 44.0887 40.0353 44.053 39.7981 44.053C39.5782 44.053 39.4 44.0947 39.2635 44.1778C39.1331 44.2609 39.0677 44.3706 39.0677 44.5071C39.0677 44.6319 39.115 44.7301 39.2102 44.8011C39.3053 44.8725 39.4684 44.9229 39.7 44.9526L40.5819 45.086C41.0447 45.1514 41.398 45.2999 41.6417 45.5315C41.8848 45.7571 42.0067 46.051 42.0067 46.4135C42.0067 46.71 41.9176 46.9743 41.7394 47.2059C41.5616 47.4319 41.321 47.6126 41.018 47.7491C40.7154 47.8799 40.368 47.9454 39.9759 47.9454Z" fill="#133769"/>
<path d="M36.0647 47.8561V43.2161H37.2849V47.8561H36.0647ZM36.6703 42.6638C36.4801 42.6638 36.3169 42.5954 36.1805 42.459C36.0436 42.3221 35.9756 42.1589 35.9756 41.9691C35.9756 41.7729 36.0436 41.6097 36.1805 41.4793C36.3169 41.3424 36.4801 41.2744 36.6703 41.2744C36.8662 41.2744 37.0293 41.3424 37.1601 41.4793C37.2966 41.6097 37.365 41.7729 37.365 41.9691C37.365 42.1589 37.2966 42.3221 37.1601 42.459C37.0293 42.5954 36.8662 42.6638 36.6703 42.6638Z" fill="#133769"/>
<path d="M30.8606 46.708H31.9475C32.2264 46.708 32.4846 46.6602 32.7222 46.5656C32.9659 46.4644 33.1763 46.3249 33.3545 46.1467C33.5388 45.9685 33.6782 45.7607 33.7733 45.5231C33.8741 45.2859 33.9249 45.0276 33.9249 44.7483C33.9249 44.4694 33.8741 44.2111 33.7733 43.9735C33.6722 43.7299 33.5327 43.5194 33.3545 43.3412C33.1763 43.163 32.9659 43.0236 32.7222 42.9224C32.4846 42.8217 32.2264 42.7713 31.9475 42.7713H30.8606V46.708ZM29.5693 47.8568V41.6221H31.9651C32.4343 41.6221 32.8677 41.7021 33.2654 41.8627C33.6636 42.0172 34.0109 42.2367 34.3075 42.5217C34.6045 42.8066 34.8361 43.1393 35.0022 43.5194C35.1744 43.8995 35.2609 44.3088 35.2609 44.7483C35.2609 45.1938 35.1774 45.6035 35.0113 45.9776C34.8451 46.3516 34.6105 46.6809 34.3075 46.9663C34.0109 47.2452 33.6636 47.4647 33.2654 47.6253C32.8677 47.7798 32.4343 47.8568 31.9651 47.8568H29.5693Z" fill="#133769"/>
<path d="M24.7498 47.9454C24.2866 47.9454 23.8652 47.8386 23.4852 47.6247C23.1111 47.4108 22.8141 47.1228 22.5946 46.7608C22.3747 46.3984 22.2649 45.9916 22.2649 45.5406C22.2649 45.089 22.3691 44.6823 22.5765 44.3203C22.7904 43.9583 23.0784 43.6699 23.4404 43.4564C23.8028 43.2425 24.2066 43.1357 24.6521 43.1357C25.0971 43.1357 25.4923 43.2455 25.8366 43.465C26.1809 43.685 26.4513 43.982 26.6471 44.356C26.849 44.7301 26.9497 45.1545 26.9497 45.6297V45.9503H23.5118C23.5652 46.1341 23.6513 46.3007 23.7701 46.4488C23.8949 46.5973 24.0464 46.713 24.2246 46.7961C24.4084 46.8796 24.6043 46.9209 24.8122 46.9209C25.0201 46.9209 25.2099 46.8882 25.3821 46.8228C25.5603 46.7578 25.7118 46.6657 25.8366 46.5469L26.6381 47.2773C26.3531 47.5089 26.0591 47.6781 25.7561 47.7848C25.4596 47.892 25.1238 47.9454 24.7498 47.9454ZM23.4942 45.0774H25.7475C25.7057 44.8932 25.6287 44.7331 25.5159 44.5962C25.4088 44.4537 25.2783 44.344 25.1238 44.2669C24.9753 44.1838 24.8092 44.1421 24.6254 44.1421C24.4351 44.1421 24.263 44.1808 24.1084 44.2579C23.9543 44.3349 23.8235 44.4451 23.7167 44.5876C23.6156 44.724 23.5416 44.8872 23.4942 45.0774Z" fill="#133769"/>
<path d="M17.199 47.8561V43.2161H18.4192V43.5987C18.7696 43.2841 19.203 43.127 19.7196 43.127C20.0816 43.127 20.3992 43.207 20.6725 43.3671C20.9515 43.5217 21.1684 43.7386 21.3229 44.0175C21.477 44.2908 21.5541 44.6115 21.5541 44.9795V47.8561H20.3342V45.1577C20.3342 44.8547 20.2481 44.6171 20.076 44.4449C19.9034 44.2667 19.6692 44.1781 19.3722 44.1781C19.1643 44.1781 18.9801 44.2194 18.82 44.3025C18.6594 44.3795 18.526 44.4927 18.4192 44.6408V47.8561H17.199Z" fill="#133769"/>
<path d="M15.0246 47.8561V43.2161H16.2449V47.8561H15.0246ZM15.6303 42.6638C15.4404 42.6638 15.2769 42.5954 15.1404 42.459C15.004 42.3221 14.9355 42.1589 14.9355 41.9691C14.9355 41.7729 15.004 41.6097 15.1404 41.4793C15.2769 41.3424 15.4404 41.2744 15.6303 41.2744C15.8261 41.2744 15.9897 41.3424 16.1201 41.4793C16.2565 41.6097 16.325 41.7729 16.325 41.9691C16.325 42.1589 16.2565 42.3221 16.1201 42.459C15.9897 42.5954 15.8261 42.6638 15.6303 42.6638Z" fill="#133769"/>
<path d="M12.8501 47.8562V41.6214L14.0704 41.417V47.8562H12.8501Z" fill="#133769"/>
<path d="M9.2146 47.8566V43.2161H10.4344V43.7326C10.5829 43.5308 10.7611 43.3767 10.969 43.2695C11.1769 43.1627 11.4115 43.1094 11.6728 43.1094C11.8983 43.1154 12.0675 43.1507 12.1803 43.2161V44.2849C12.0912 44.2436 11.993 44.2139 11.8863 44.1958C11.7795 44.1721 11.6698 44.1605 11.557 44.1605C11.3194 44.1605 11.1025 44.2195 10.9066 44.3383C10.7108 44.4571 10.5532 44.6262 10.4344 44.8462V47.8566H9.2146Z" fill="#133769"/>
<path d="M7.04003 47.8561V43.2161H8.2603V47.8561H7.04003ZM7.64564 42.6638C7.45539 42.6638 7.29226 42.5954 7.15581 42.459C7.01893 42.3221 6.95093 42.1589 6.95093 41.9691C6.95093 41.7729 7.01893 41.6097 7.15581 41.4793C7.29226 41.3424 7.45539 41.2744 7.64564 41.2744C7.84149 41.2744 8.00462 41.3424 8.13547 41.4793C8.27192 41.6097 8.34036 41.7729 8.34036 41.9691C8.34036 42.1589 8.27192 42.3221 8.13547 42.459C8.00462 42.5954 7.84149 42.6638 7.64564 42.6638Z" fill="#133769"/>
<path d="M0 47.8568L2.56493 41.6221H4.05249L6.59074 47.8568H5.1927L4.55997 46.2182H1.986L1.34509 47.8568H0ZM2.38717 45.1847H4.16828L3.27772 42.8871L2.38717 45.1847Z" fill="#133769"/>
<defs>
<linearGradient id="paint0_linear_485_12074" x1="-17.8133" y1="18.8028" x2="156.855" y2="18.8028" gradientUnits="userSpaceOnUse">
<stop stop-color="#F8B133"/>
<stop offset="1" stop-color="#D22635"/>
</linearGradient>
</defs>
</svg>
