<?xml version="1.0" encoding="UTF-8" standalone="no"?>
<svg
   width="118.234"
   height="39.999958"
   viewBox="0 0 118.234 39.999958"
   fill="#240852"
   version="1.1"
   id="svg50"
   sodipodi:docname="e40c7668c29d690d702aee2e30af6183.svg"
   xmlns:inkscape="http://www.inkscape.org/namespaces/inkscape"
   xmlns:sodipodi="http://sodipodi.sourceforge.net/DTD/sodipodi-0.dtd"
   xmlns="http://www.w3.org/2000/svg"
   xmlns:svg="http://www.w3.org/2000/svg">
  <defs
     id="defs54" />
  <sodipodi:namedview
     id="namedview52"
     pagecolor="#ffffff"
     bordercolor="#666666"
     borderopacity="1.0"
     inkscape:pageshadow="2"
     inkscape:pageopacity="0.0"
     inkscape:pagecheckerboard="0" />
  <path
     d="m 15.1344,36.8074 c -0.8812,0.1131 -1.7577,0.1547 -2.6406,0.1403 C 8.46992,36.9188 4.42518,34.8163 2.34427,31.308 1.48946,29.8766 0.99869801,28.2352 0.89365001,26.5688 c -0.037689,-0.7433 -0.060142,-1.5003 -0.077783,-2.2437 -0.056133,-1.7561 -0.024057,-4.2147 -0.048916,-6.0013 -0.004811,-1.7393 -0.101038,-4.2797 -0.083396,-5.9861 0.032076,-0.6736 0.058538,-1.3681 0.201274,-2.032 h -0.080189 c -0.198067,0.6551 -0.343209,1.3263 -0.42821,2.0071 -0.257407,1.7201 -0.208492,4.2637 -0.248587,6.0118 0,1.7706 -0.1419346,8.0021 -0.12669863,9.0373 0.10424563,3.7432 1.80184562,7.4632 4.72314562,9.8641 2.99506,2.4906 7.33171,3.4922 11.06451,2.2244 2.7978,-1.004 5.0054,-3.2067 6.4312,-5.7399 l -0.0939,-0.0433 c -1.7786,1.9502 -4.4625,2.8507 -6.9917,3.1402 z"
     id="path2" />
  <path
     d="m 17.4375,26.228 c -2.3471,-2.4104 -4.4417,-3.4088 -6.1834,-3.8482 l 0.0457,-0.0048 c 3.4081,-0.5036 6.238,-3.7008 6.238,-7.193 0,-3.8058 -3.202,-7.20822 -7.0078,-7.20822 V 7.97137 H 7.00892 3.37635 1.93936 C 2.15908,7.54316 3.13498,6.4133 3.91522,5.79584 5.44683,4.58258 7.23345,3.81757 9.10747,3.39658 12.6478,2.58346 16.4672,3.14559 19.4639,5.24655 c 2.3471,1.62142 4.0969,4.19549 4.5427,7.04705 0.2286,1.3784 0.1861,3.145 0.235,4.5491 0.0112,1.4851 0.0288,3.1338 0.0264,4.6085 -0.0072,2.0432 0.1123,4.088 0.053,6.1288 -0.0265,0.6568 -0.0746,1.3167 -0.1917,1.9623 l 0.0994,0.0465 c 0.1909,-0.6391 0.3032,-1.3031 0.3849,-1.9623 0.215,-2.0464 0.255,-4.1209 0.2903,-6.1753 0.008,-1.9823 0.1853,-8.3525 0.1075,-9.2715 C 24.7387,7.74283 22.2625,3.50804 18.2546,1.39666 16.2259,0.31170399 13.8771,-0.14617701 11.5829,0.04066379 6.89826,0.44080799 3.58404,3.87531 1.73568,7.95534 L 1.66992,8.09807 h 4.1971 c 3.82583,0.21571 8.84328,1.33114 8.84328,7.08233 0,5.7704 -5.08321,6.9115 -8.89781,7.1376 H 3.23762 v 0.1267 h 2.61016 c 0.78425,0.0313 4.24122,0.4491 8.50242,5.1313 3.2854,3.6125 7.804,5.4385 12.532,3.6238 -4.7576,1.3079 -6.0342,-1.4763 -9.4447,-4.9718 z"
     id="path4" />
  <path
     d="M 46.7155,6.65739 H 45.11 V 17.4337 h 1.6055 z"
     id="path6" />
  <path
     d="M 56.8721,6.65739 53.1525,12.1725 49.4167,6.65739 h -1.8046 l 4.1904,6.17581 v 4.6005 h 1.6043 v -4.6005 l 4.1904,-6.17581 z"
     id="path8" />
  <path
     d="m 68.8585,7.18441 h 2.3237 c 1.3074,0 2.4168,0.45846 3.2075,1.32484 0.7952,0.87087 1.2153,2.09345 1.2153,3.53625 0,1.4429 -0.4201,2.6655 -1.2153,3.5363 -0.7907,0.8664 -1.9001,1.3249 -3.2075,1.3249 H 68.8585 Z M 71.3824,6.65739 H 67.253 V 17.4337 h 4.1294 c 3.3571,0 5.8891,-2.316 5.8891,-5.3882 0,-3.07216 -2.532,-5.38811 -5.8891,-5.38811 z"
     id="path10" />
  <path
     d="M 86.5385,11.6522 H 80.394 V 6.65739 H 78.7885 V 17.4337 h 1.6055 v -5.1511 h 6.1445 v 5.1511 h 1.6044 V 6.65739 h -1.6044 z"
     id="path12" />
  <path
     d="m 106.632,6.65739 h -1.606 V 17.4337 h 1.606 z"
     id="path14" />
  <path
     d="m 43.2754,16.1178 -1.3465,-2.244 c -0.2809,-0.4933 -0.6975,-0.8372 -1.3247,-1.0821 1.7447,-0.3608 2.8864,-1.535 2.8864,-3.0228 0,-1.77432 -1.7355,-3.11265 -4.0361,-3.11265 H 35.0938 V 17.4325 h 1.6043 V 7.18327 h 2.4928 c 1.5997,0 2.6321,1.02032 2.6321,2.60024 0,1.48219 -0.9035,2.49239 -2.4779,2.69799 -0.6192,0.0809 -1.2441,0.0764 -1.6573,0.0742 -0.0725,0 -0.1404,-0.0011 -0.2014,-0.0011 h -0.115 v 0.1505 h 0.2819 c 0.7389,0 1.1843,-0.0011 1.5157,0.1146 0.3603,0.1259 0.6618,0.4945 0.9484,0.9698 0.1876,0.3113 1.5525,2.6879 1.5675,2.7126 0.2209,0.3776 0.5029,0.6832 0.8367,0.9102 l 0.0299,0.0202 h 1.9714 L 44.2295,17.228 c -0.3246,-0.227 -0.7078,-0.6719 -0.9541,-1.1102 z"
     id="path16" />
  <path
     d="M 100.095,12.3388 H 96.6053 L 98.3558,8.43845 Z M 98.4813,6.65739 93.6407,17.4337 h 0.6847 l 2.0072,-4.4645 h 4.0484 l 1.99,4.4645 h 1.689 L 99.2351,6.65739 Z"
     id="path18" />
  <path
     d="m 116.985,16.1178 -1.346,-2.244 c -0.281,-0.4933 -0.698,-0.8372 -1.325,-1.0821 1.745,-0.3608 2.886,-1.535 2.886,-3.0228 0,-1.77432 -1.735,-3.11265 -4.036,-3.11265 h -4.36 V 17.4325 h 1.605 V 7.18327 h 2.493 c 1.598,0 2.632,1.02032 2.632,2.60024 0,1.48219 -0.904,2.49239 -2.478,2.69799 -0.62,0.0809 -1.244,0.0764 -1.657,0.0742 -0.073,0 -0.141,-0.0011 -0.202,-0.0011 h -0.115 v 0.1505 h 0.282 c 0.739,0 1.185,-0.0011 1.516,0.1146 0.36,0.1259 0.662,0.4945 0.948,0.9698 0.188,0.3113 1.553,2.6879 1.567,2.7126 0.221,0.3776 0.503,0.6832 0.836,0.9102 l 0.03,0.0202 h 1.973 L 117.94,17.228 c -0.325,-0.227 -0.709,-0.6719 -0.955,-1.1102 z"
     id="path20" />
  <path
     d="M 62.3168,12.3388 H 58.8273 L 60.5778,8.43845 Z M 60.7021,6.65739 55.8615,17.4337 h 0.6847 l 2.0072,-4.4645 h 4.0488 l 1.9899,4.4645 h 1.6883 L 61.4559,6.65739 Z"
     id="path22" />
  <path
     d="m 44.1386,25.4742 c 0.1828,0 0.3397,-0.0674 0.4656,-0.2006 0.1253,-0.1321 0.189,-0.2939 0.189,-0.4802 0,-0.1862 -0.0637,-0.3481 -0.189,-0.4802 -0.1259,-0.1331 -0.2828,-0.2005 -0.4656,-0.2005 -0.1895,0 -0.3495,0.0674 -0.4754,0.2005 -0.1253,0.1327 -0.1885,0.294 -0.1885,0.4802 0,0.1863 0.0637,0.3481 0.1885,0.4802 0.1253,0.1332 0.2854,0.2006 0.4754,0.2006 z"
     id="path24" />
  <path
     d="m 50.1386,31.7701 c -0.1818,0 -0.3397,0.0653 -0.4687,0.1937 -0.13,0.1289 -0.1957,0.2892 -0.1957,0.477 0,0.1942 0.0657,0.3581 0.1957,0.4871 0.129,0.1284 0.2869,0.1931 0.4687,0.1931 0.1818,0 0.3397,-0.0653 0.4686,-0.1937 0.13,-0.1294 0.1958,-0.2934 0.1958,-0.487 0,-0.1873 -0.0658,-0.3481 -0.1958,-0.477 -0.1294,-0.1279 -0.2868,-0.1932 -0.4686,-0.1932 z"
     id="path26" />
  <path
     d="m 51.7646,31.7701 c -0.1812,0 -0.3407,0.0648 -0.4728,0.1926 -0.1336,0.129 -0.2014,0.2897 -0.2014,0.4781 0,0.1947 0.0678,0.3587 0.2014,0.4881 0.1321,0.1279 0.2911,0.1926 0.4728,0.1926 0.1818,0 0.3398,-0.0652 0.4692,-0.1936 0.13,-0.1295 0.1958,-0.2934 0.1958,-0.4871 0,-0.1873 -0.0658,-0.3475 -0.1958,-0.477 -0.1294,-0.1284 -0.2874,-0.1937 -0.4692,-0.1937 z"
     id="path28" />
  <path
     d="m 52.3099,26.5958 h -1.0611 v 3.9996 h -2.5013 v -7.5163 h -1.0512 v 7.9885 h 4.6136 z"
     id="path30" />
  <path
     d="M 61.2602,23.0791 H 60.209 v 7.988 h 1.0512 z"
     id="path32" />
  <path
     d="m 72.1768,23.0791 h -1.0513 v 7.988 h 1.0513 z"
     id="path34" />
  <path
     d="m 78.9384,31.7701 c -0.1818,0 -0.3408,0.0648 -0.4728,0.1926 -0.1336,0.129 -0.2015,0.2903 -0.2015,0.4781 0,0.1947 0.0679,0.3587 0.2015,0.4881 0.132,0.1279 0.291,0.1926 0.4728,0.1926 0.1817,0 0.3397,-0.0652 0.4686,-0.1936 0.13,-0.1295 0.1958,-0.2934 0.1958,-0.4871 0,-0.1873 -0.0658,-0.3481 -0.1958,-0.477 -0.1289,-0.1284 -0.2869,-0.1937 -0.4686,-0.1937 z"
     id="path36" />
  <path
     d="m 77.3123,31.7701 c -0.1823,0 -0.3397,0.0653 -0.4686,0.1937 -0.13,0.1289 -0.1958,0.2892 -0.1958,0.477 0,0.1942 0.0658,0.3581 0.1958,0.4871 0.1289,0.1284 0.2869,0.1931 0.4686,0.1931 0.1818,0 0.3397,-0.0653 0.4687,-0.1937 0.13,-0.1294 0.1957,-0.2928 0.1957,-0.487 0,-0.1873 -0.0657,-0.3481 -0.1957,-0.477 -0.129,-0.1279 -0.2869,-0.1932 -0.4687,-0.1932 z"
     id="path38" />
  <path
     d="m 57.9147,30.5954 c -0.3578,0 -1.7214,-0.0011 -1.9269,-0.0011 -0.2196,0 -0.7323,-0.1103 -0.7509,-1.1333 5e-4,-0.1968 -6e-4,-0.3576 -0.0026,-0.4765 v -2.3892 h -1.0611 v 4.2702 c 0.0031,0.8452 -0.1197,1.3493 -0.3972,1.6342 -0.1974,0.2027 -0.4915,0.2685 -1.0156,0.2265 l -0.0922,-0.0074 v 0.2022 l 0.0544,0.0217 c 0.2709,0.1099 0.5645,0.1677 0.8504,0.1677 0.3226,0 0.9109,-0.0791 1.2257,-0.607 0.3154,-0.529 0.4086,-1.2331 0.4314,-1.9144 0.1787,0.3057 0.4702,0.4839 0.8157,0.4776 h 2.9305 v -7.9875 h -1.0611 v 7.5163 z"
     id="path40" />
  <path
     d="m 68.8716,29.9826 c 0,0.3353 -0.0357,0.6478 -0.1056,0.9285 -0.071,0.2834 -0.1885,0.5317 -0.3506,0.7386 -0.1621,0.2075 -0.3745,0.3725 -0.6308,0.4903 -0.2563,0.1172 -0.5764,0.1766 -0.9513,0.1766 -0.3014,0 -0.5899,-0.0451 -0.8586,-0.1347 -0.1978,-0.0658 -0.7996,-0.2664 -1.1989,-1.1827 -0.3428,-0.7869 -0.2724,-1.474 -0.2418,-1.7674 0.0026,-0.026 0.0052,-0.0488 0.0067,-0.0679 0.0176,-0.2048 0.1279,-0.8171 0.2843,-1.309 l 0.0238,-0.0753 -0.1771,-0.0801 -0.0398,0.0626 c -0.0218,0.0345 -0.5397,0.8558 -0.7023,1.5015 -0.4205,1.6719 0.1207,2.6349 0.4806,3.0599 0.8633,1.0193 1.942,1.0193 2.4024,1.0193 0.3475,0 0.683,-0.0525 0.9979,-0.1565 0.3149,-0.1045 0.6054,-0.2558 0.8638,-0.45 0.2589,-0.1947 0.4847,-0.4329 0.6711,-0.7072 0.2497,-0.3683 0.5474,-1.0246 0.5474,-2.0587 v -3.3751 h -1.0207 v 3.3873 z"
     id="path42" />
  <path
     d="m 67.2549,25.4742 c 0.1828,0 0.3392,-0.0674 0.4656,-0.2006 0.1253,-0.1321 0.189,-0.2939 0.189,-0.4802 0,-0.1862 -0.0637,-0.3481 -0.189,-0.4802 -0.1259,-0.1331 -0.2828,-0.2005 -0.4656,-0.2005 -0.1895,0 -0.3495,0.0674 -0.4754,0.2005 -0.1253,0.1321 -0.189,0.294 -0.189,0.4802 0,0.1868 0.0637,0.3481 0.189,0.4802 0.1259,0.1332 0.2854,0.2006 0.4754,0.2006 z"
     id="path44" />
  <path
     d="m 83.259,27.8151 c 0.5727,-0.5953 1.002,-0.7147 1.5085,-0.7147 0.2356,0 0.4531,0.0388 0.6453,0.1146 0.1936,0.077 0.364,0.1969 0.5064,0.3566 0.1425,0.1597 0.2538,0.3666 0.3315,0.6155 0.0771,0.2478 0.116,0.547 0.116,0.8892 v 1.518 h -4.2191 c 0.041,-0.1798 0.1217,-0.5332 0.1538,-0.6563 0.0089,-0.0345 0.0197,-0.078 0.0316,-0.1273 0.0492,-0.2001 0.1233,-0.5014 0.2196,-0.7657 0.1932,-0.5295 0.4309,-0.9434 0.7064,-1.2299 z m 4.0217,0.0043 c -0.1046,-0.3417 -0.2553,-0.641 -0.4485,-0.8888 -0.1921,-0.2467 -0.4319,-0.4414 -0.7115,-0.5783 -0.2807,-0.1369 -0.6012,-0.2064 -0.9539,-0.2064 -0.2807,0 -0.5691,0.0541 -0.8571,0.1613 -0.2879,0.1072 -0.5629,0.2738 -0.8182,0.495 -0.2558,0.2218 -0.494,0.5067 -0.7069,0.8463 -0.2133,0.3401 -0.3884,0.7481 -0.5199,1.2124 L 82.2,29.0885 v -6.0094 h -1.0213 l -0.0046,7.5195 h -1.5894 c -0.0207,0 -0.0404,-0.0011 -0.058,-0.0027 l -0.0269,-0.0031 c -0.2864,-0.0351 -0.4744,-0.2086 -0.5743,-0.5301 -0.0482,-0.1533 -0.072,-0.33 -0.0715,-0.5242 5e-4,-0.1125 0.0011,-0.1958 0.0011,-0.2611 0.001,-0.1517 0.001,-0.2085 -0.0021,-0.313 v -2.3686 h -1.0513 v 3.3194 l -10e-4,0.0265 c -0.0176,0.4542 -0.0249,0.642 -0.5246,0.6548 -0.5386,-6e-4 -1.2636,-6e-4 -1.4091,-6e-4 -0.6587,0 -0.7442,-0.7932 -0.7504,-1.1344 5e-4,-0.1963 -5e-4,-0.3576 -0.0026,-0.4764 v -2.3893 h -1.0611 v 4.2702 c 0.0031,0.8452 -0.1196,1.3493 -0.3967,1.6347 -0.1968,0.2027 -0.4914,0.2685 -1.0155,0.2266 l -0.0922,-0.0074 v 0.2021 l 0.0544,0.0218 c 0.2708,0.1098 0.5645,0.1676 0.8503,0.1676 0.3227,0 0.911,-0.079 1.2258,-0.6069 0.3154,-0.529 0.4086,-1.2331 0.4314,-1.9144 0.1787,0.3056 0.4713,0.4834 0.8156,0.4775 h 1.1761 c 0.0249,0.0011 0.405,0.0011 0.4091,0.0011 0.5868,0 1.0332,-0.2457 1.231,-0.659 0.1595,0.4154 0.494,0.6664 0.9026,0.6595 l 7.7964,-5e-4 v -2.1133 c -0.0025,-0.4112 -0.0559,-0.7927 -0.1605,-1.136 z"
     id="path46" />
  <path
     d="m 42.2711,27.8157 c 0.5728,-0.5954 1.0016,-0.7147 1.5085,-0.7147 0.2357,0 0.4532,0.0387 0.6458,0.1146 0.1937,0.0769 0.3641,0.1968 0.5065,0.3565 0.1424,0.1597 0.2537,0.3667 0.3314,0.6155 0.0772,0.2478 0.1165,0.547 0.1165,0.8893 v 1.518 H 41.18 c 0.0336,-0.1783 0.102,-0.5338 0.1341,-0.6564 0.0088,-0.0345 0.0197,-0.0774 0.0316,-0.1273 0.0492,-0.2 0.1238,-0.5019 0.2196,-0.7656 0.1926,-0.5301 0.4303,-0.944 0.7058,-1.2299 z m 4.0212,0.0037 c -0.1046,-0.3417 -0.2553,-0.6404 -0.4485,-0.8888 -0.1921,-0.2467 -0.4319,-0.4414 -0.7115,-0.5783 -0.2807,-0.1369 -0.6012,-0.2064 -0.9539,-0.2064 -0.2807,0 -0.5686,0.0541 -0.8571,0.1613 -0.2879,0.1072 -0.5629,0.2738 -0.8182,0.495 -0.2563,0.2223 -0.494,0.5067 -0.7069,0.8463 -0.2133,0.3396 -0.3884,0.7476 -0.5199,1.2124 l -0.0647,0.2276 v -2.4056 l -0.0021,-0.0876 h -1.0207 v 3.3878 c 0,0.3353 -0.0358,0.6479 -0.1057,0.9285 -0.0709,0.2828 -0.1885,0.5317 -0.3506,0.7386 -0.1615,0.2075 -0.3739,0.3725 -0.6307,0.4903 -0.2564,0.1172 -0.5764,0.1767 -0.9513,0.1767 -0.3014,0 -0.5899,-0.0451 -0.8586,-0.1348 -0.1979,-0.0658 -0.7996,-0.2658 -1.1989,-1.1827 -0.3428,-0.7874 -0.2719,-1.4745 -0.2418,-1.7679 0.0025,-0.026 0.0051,-0.0483 0.0067,-0.0674 0.0176,-0.2048 0.1279,-0.8176 0.2843,-1.3089 L 36.166,27.7801 35.9889,27.7 35.949,27.7626 c -0.0217,0.0345 -0.5396,0.8558 -0.7022,1.5016 -0.4205,1.6724 0.1207,2.6349 0.4806,3.0599 0.8633,1.0192 1.942,1.0192 2.4024,1.0192 0.3474,0 0.683,-0.0525 0.9974,-0.1565 0.3148,-0.1045 0.6053,-0.2558 0.8638,-0.4499 0.2589,-0.1948 0.4842,-0.4325 0.6711,-0.7073 0.1807,-0.2664 0.3242,-0.5975 0.4169,-0.9614 h 5.3713 v -2.1134 c 0,-0.4106 -0.0529,-0.7921 -0.158,-1.1354 z"
     id="path48" />
</svg>
