<svg width="160" height="38" viewBox="0 0 160 38" fill="none" xmlns="http://www.w3.org/2000/svg">
<path d="M45.1867 32.426H46.9602V34.8866C46.6941 34.9769 46.4199 35.044 46.1377 35.0879C45.8577 35.1319 45.5442 35.1539 45.1971 35.1539C44.6696 35.1539 44.2242 35.0486 43.861 34.8381C43.5 34.6275 43.2258 34.3279 43.0384 33.9392C42.851 33.5482 42.7573 33.0843 42.7573 32.5475C42.7573 32.0223 42.8603 31.5641 43.0662 31.1731C43.2744 30.7821 43.5741 30.479 43.9651 30.2638C44.3584 30.0463 44.8304 29.9376 45.3811 29.9376C45.6634 29.9376 45.9306 29.9642 46.1828 30.0174C46.4373 30.0683 46.6733 30.1412 46.8908 30.2361L46.6652 30.7497C46.4778 30.6687 46.2707 30.5993 46.044 30.5415C45.8195 30.4836 45.587 30.4547 45.3464 30.4547C44.9322 30.4547 44.5771 30.5403 44.2809 30.7115C43.9871 30.8827 43.7615 31.1245 43.6041 31.4369C43.4491 31.7492 43.3716 32.1194 43.3716 32.5475C43.3716 32.9709 43.4399 33.3399 43.5764 33.6546C43.7129 33.9669 43.9257 34.2099 44.215 34.3834C44.5042 34.5569 44.8767 34.6437 45.3325 34.6437C45.5616 34.6437 45.7582 34.631 45.9225 34.6055C46.0868 34.5778 46.236 34.5454 46.3702 34.5084V32.9535H45.1867V32.426ZM49.844 30.0105C50.2605 30.0105 50.604 30.0625 50.8748 30.1666C51.1478 30.2684 51.3514 30.4246 51.4856 30.6352C51.6198 30.8457 51.6869 31.1141 51.6869 31.4403C51.6869 31.7087 51.6383 31.9332 51.5411 32.1136C51.4439 32.2918 51.3167 32.4364 51.1593 32.5475C51.002 32.6585 50.8343 32.7441 50.6561 32.8043L52.0478 35.0845H51.3606L50.1182 32.9674H49.0631V35.0845H48.4731V30.0105H49.844ZM49.8093 30.5206H49.0631V32.4676H49.8683C50.2824 32.4676 50.5867 32.3832 50.7811 32.2143C50.9777 32.0454 51.0761 31.7967 51.0761 31.4681C51.0761 31.1234 50.9719 30.8793 50.7637 30.7358C50.5578 30.5924 50.2396 30.5206 49.8093 30.5206ZM57.545 32.5405C57.545 32.9315 57.4952 33.2879 57.3957 33.6095C57.2962 33.9288 57.1482 34.2041 56.9515 34.4355C56.7571 34.6645 56.5154 34.8415 56.2261 34.9665C55.9369 35.0914 55.6014 35.1539 55.2197 35.1539C54.8263 35.1539 54.4827 35.0914 54.1889 34.9665C53.8974 34.8415 53.6544 34.6634 53.4601 34.432C53.268 34.2006 53.1234 33.9241 53.0262 33.6025C52.9314 33.2809 52.884 32.9246 52.884 32.5336C52.884 32.0153 52.9696 31.5607 53.1408 31.1696C53.312 30.7786 53.5711 30.4744 53.9182 30.2569C54.2676 30.0394 54.7049 29.9306 55.2301 29.9306C55.7322 29.9306 56.1544 30.0382 56.4968 30.2534C56.8416 30.4686 57.1019 30.7717 57.2777 31.1627C57.4559 31.5514 57.545 32.0107 57.545 32.5405ZM53.5052 32.5405C53.5052 32.9709 53.5665 33.3434 53.6891 33.6581C53.8118 33.9727 53.9992 34.2157 54.2514 34.3869C54.5059 34.5581 54.8286 34.6437 55.2197 34.6437C55.613 34.6437 55.9346 34.5581 56.1845 34.3869C56.4367 34.2157 56.6229 33.9727 56.7433 33.6581C56.8636 33.3434 56.9237 32.9709 56.9237 32.5405C56.9237 31.8857 56.7861 31.3744 56.5107 31.0065C56.2377 30.6363 55.8108 30.4512 55.2301 30.4512C54.8367 30.4512 54.5128 30.5357 54.2583 30.7046C54.0038 30.8735 53.8141 31.1141 53.6891 31.4265C53.5665 31.7365 53.5052 32.1079 53.5052 32.5405ZM62.7992 30.0105V33.2936C62.7992 33.6523 62.7263 33.9716 62.5805 34.2515C62.4371 34.5315 62.2196 34.7525 61.928 34.9144C61.6365 35.0741 61.2709 35.1539 60.8313 35.1539C60.2043 35.1539 59.7265 34.9838 59.398 34.6437C59.0717 34.3036 58.9086 33.8489 58.9086 33.2798V30.0105H59.5021V33.2971C59.5021 33.7275 59.6155 34.0595 59.8422 34.2932C60.0713 34.5269 60.4126 34.6437 60.866 34.6437C61.1761 34.6437 61.4294 34.5882 61.6261 34.4771C61.8251 34.3637 61.972 34.2064 62.0669 34.0051C62.164 33.8015 62.2126 33.5667 62.2126 33.3006V30.0105H62.7992ZM65.7558 30.0105C66.4106 30.0105 66.8884 30.1389 67.1892 30.3957C67.4923 30.6502 67.6438 31.0158 67.6438 31.4924C67.6438 31.7076 67.608 31.9123 67.5363 32.1067C67.4668 32.2987 67.3535 32.4688 67.1961 32.6169C67.0388 32.7626 66.8317 32.8783 66.5749 32.9639C66.3204 33.0472 66.008 33.0889 65.6378 33.0889H65.0201V35.0845H64.4301V30.0105H65.7558ZM65.7003 30.5137H65.0201V32.5822H65.5719C65.8958 32.5822 66.1654 32.5475 66.3805 32.4781C66.598 32.4086 66.7612 32.2964 66.8699 32.1414C66.9786 31.9841 67.033 31.7758 67.033 31.5167C67.033 31.1789 66.9254 30.9279 66.7103 30.7636C66.4951 30.597 66.1584 30.5137 65.7003 30.5137ZM72.4917 30.0105C72.9082 30.0105 73.2518 30.0625 73.5225 30.1666C73.7955 30.2684 73.9991 30.4246 74.1333 30.6352C74.2675 30.8457 74.3346 31.1141 74.3346 31.4403C74.3346 31.7087 74.286 31.9332 74.1888 32.1136C74.0917 32.2918 73.9644 32.4364 73.8071 32.5475C73.6497 32.6585 73.482 32.7441 73.3038 32.8043L74.6955 35.0845H74.0084L72.7659 32.9674H71.7108V35.0845H71.1208V30.0105H72.4917ZM72.457 30.5206H71.7108V32.4676H72.516C72.9302 32.4676 73.2344 32.3832 73.4288 32.2143C73.6254 32.0454 73.7238 31.7967 73.7238 31.4681C73.7238 31.1234 73.6197 30.8793 73.4114 30.7358C73.2055 30.5924 72.8874 30.5206 72.457 30.5206ZM78.617 35.0845H75.792V30.0105H78.617V30.5311H76.382V32.1726H78.4886V32.6863H76.382V34.5639H78.617V35.0845ZM83.5693 30.0105L81.7472 35.0845H81.1538L79.3317 30.0105H79.9495L81.1364 33.3526C81.185 33.4868 81.2278 33.6153 81.2648 33.7379C81.3042 33.8605 81.3389 33.9785 81.3689 34.0919C81.399 34.2053 81.4256 34.3152 81.4488 34.4216C81.4719 34.3152 81.4985 34.2053 81.5286 34.0919C81.5587 33.9762 81.5934 33.857 81.6327 33.7344C81.672 33.6095 81.716 33.4787 81.7646 33.3422L82.9446 30.0105H83.5693ZM87.3763 35.0845H84.5512V30.0105H87.3763V30.5311H85.1412V32.1726H87.2479V32.6863H85.1412V34.5639H87.3763V35.0845ZM92.7519 35.0845H92.0717L89.3056 30.8226H89.2779C89.2848 30.936 89.2929 31.0655 89.3022 31.2113C89.3114 31.3547 89.3184 31.5086 89.323 31.6729C89.3299 31.8348 89.3334 32.0003 89.3334 32.1692V35.0845H88.785V30.0105H89.4618L92.2175 34.2585H92.2418C92.2371 34.1775 92.2313 34.063 92.2244 33.9149C92.2175 33.7645 92.2105 33.6037 92.2036 33.4325C92.199 33.2589 92.1966 33.0981 92.1966 32.9501V30.0105H92.7519V35.0845ZM98.2595 30.0105V33.2936C98.2595 33.6523 98.1866 33.9716 98.0408 34.2515C97.8974 34.5315 97.6799 34.7525 97.3884 34.9144C97.0968 35.0741 96.7313 35.1539 96.2917 35.1539C95.6646 35.1539 95.1869 34.9838 94.8583 34.6437C94.5321 34.3036 94.369 33.8489 94.369 33.2798V30.0105H94.9624V33.2971C94.9624 33.7275 95.0758 34.0595 95.3025 34.2932C95.5316 34.5269 95.8729 34.6437 96.3264 34.6437C96.6364 34.6437 96.8898 34.5882 97.0864 34.4771C97.2854 34.3637 97.4323 34.2064 97.5272 34.0051C97.6244 33.8015 97.673 33.5667 97.673 33.3006V30.0105H98.2595ZM102.715 35.0845H99.8904V30.0105H102.715V30.5311H100.48V32.1726H102.587V32.6863H100.48V34.5639H102.715V35.0845ZM108.487 35.0845L106.782 30.5935H106.755C106.764 30.6884 106.772 30.8041 106.779 30.9406C106.786 31.0771 106.792 31.2263 106.796 31.3883C106.801 31.5479 106.803 31.7111 106.803 31.8776V35.0845H106.255V30.0105H107.13L108.736 34.2307H108.761L110.392 30.0105H111.26V35.0845H110.676V31.836C110.676 31.6856 110.679 31.5352 110.683 31.3848C110.688 31.2321 110.694 31.0887 110.701 30.9545C110.708 30.818 110.715 30.7 110.722 30.6005H110.694L108.969 35.0845H108.487ZM116.115 35.0845L115.49 33.4741H113.456L112.835 35.0845H112.238L114.223 29.9896H114.754L116.725 35.0845H116.115ZM115.313 32.9501L114.719 31.3501C114.706 31.3085 114.682 31.2402 114.65 31.1453C114.62 31.0505 114.589 30.9522 114.556 30.8503C114.524 30.7485 114.497 30.6664 114.476 30.6039C114.453 30.6988 114.428 30.7937 114.4 30.8885C114.375 30.9811 114.349 31.0678 114.324 31.1488C114.298 31.2275 114.276 31.2946 114.258 31.3501L113.654 32.9501H115.313ZM121.681 35.0845H121.001L118.235 30.8226H118.207C118.214 30.936 118.222 31.0655 118.231 31.2113C118.241 31.3547 118.248 31.5086 118.252 31.6729C118.259 31.8348 118.263 32.0003 118.263 32.1692V35.0845H117.714V30.0105H118.391L121.147 34.2585H121.171C121.166 34.1775 121.161 34.063 121.154 33.9149C121.147 33.7645 121.14 33.6037 121.133 33.4325C121.128 33.2589 121.126 33.0981 121.126 32.9501V30.0105H121.681V35.0845ZM126.533 35.0845L125.908 33.4741H123.874L123.253 35.0845H122.656L124.641 29.9896H125.172L127.144 35.0845H126.533ZM125.731 32.9501L125.138 31.3501C125.124 31.3085 125.101 31.2402 125.068 31.1453C125.038 31.0505 125.007 30.9522 124.974 30.8503C124.942 30.7485 124.915 30.6664 124.895 30.6039C124.872 30.6988 124.846 30.7937 124.818 30.8885C124.793 30.9811 124.767 31.0678 124.742 31.1488C124.716 31.2275 124.695 31.2946 124.676 31.3501L124.072 32.9501H125.731ZM130.302 32.426H132.075V34.8866C131.809 34.9769 131.535 35.044 131.253 35.0879C130.973 35.1319 130.659 35.1539 130.312 35.1539C129.784 35.1539 129.339 35.0486 128.976 34.8381C128.615 34.6275 128.341 34.3279 128.153 33.9392C127.966 33.5482 127.872 33.0843 127.872 32.5475C127.872 32.0223 127.975 31.5641 128.181 31.1731C128.389 30.7821 128.689 30.479 129.08 30.2638C129.473 30.0463 129.945 29.9376 130.496 29.9376C130.778 29.9376 131.045 29.9642 131.298 30.0174C131.552 30.0683 131.788 30.1412 132.006 30.2361L131.78 30.7497C131.593 30.6687 131.386 30.5993 131.159 30.5415C130.934 30.4836 130.702 30.4547 130.461 30.4547C130.047 30.4547 129.692 30.5403 129.396 30.7115C129.102 30.8827 128.876 31.1245 128.719 31.4369C128.564 31.7492 128.486 32.1194 128.486 32.5475C128.486 32.9709 128.555 33.3399 128.691 33.6546C128.828 33.9669 129.041 34.2099 129.33 34.3834C129.619 34.5569 129.992 34.6437 130.447 34.6437C130.676 34.6437 130.873 34.631 131.037 34.6055C131.202 34.5778 131.351 34.5454 131.485 34.5084V32.9535H130.302V32.426ZM136.413 35.0845H133.588V30.0105H136.413V30.5311H134.178V32.1726H136.285V32.6863H134.178V34.5639H136.413V35.0845ZM140.053 35.0845L138.349 30.5935H138.322C138.331 30.6884 138.339 30.8041 138.346 30.9406C138.353 31.0771 138.359 31.2263 138.363 31.3883C138.368 31.5479 138.37 31.7111 138.37 31.8776V35.0845H137.822V30.0105H138.696L140.303 34.2307H140.328L141.959 30.0105H142.826V35.0845H142.243V31.836C142.243 31.6856 142.246 31.5352 142.25 31.3848C142.255 31.2321 142.261 31.0887 142.268 30.9545C142.275 30.818 142.282 30.7 142.288 30.6005H142.261L140.536 35.0845H140.053ZM147.324 35.0845H144.499V30.0105H147.324V30.5311H145.089V32.1726H147.196V32.6863H145.089V34.5639H147.324V35.0845ZM152.7 35.0845H152.019L149.253 30.8226H149.226C149.233 30.936 149.241 31.0655 149.25 31.2113C149.259 31.3547 149.266 31.5086 149.271 31.6729C149.278 31.8348 149.281 32.0003 149.281 32.1692V35.0845H148.733V30.0105H149.41L152.165 34.2585H152.189C152.185 34.1775 152.179 34.063 152.172 33.9149C152.165 33.7645 152.158 33.6037 152.151 33.4325C152.147 33.2589 152.144 33.0981 152.144 32.9501V30.0105H152.7V35.0845ZM155.927 35.0845H155.334V30.5311H153.737V30.0105H157.517V30.5311H155.927V35.0845Z" fill="#666666"/>
<path d="M52.1696 20.0803C46.7612 20.0803 42.3235 16.3082 42.3235 10.4838C42.3235 4.63159 46.7612 0.915039 52.1696 0.915039C56.0248 0.915039 58.4378 2.85652 59.8246 5.04763L56.5518 6.8227C55.7197 5.51913 54.1388 4.40971 52.1696 4.40971C48.8136 4.40971 46.3729 6.98911 46.3729 10.4838C46.3729 13.9785 48.8136 16.5579 52.1696 16.5579C53.806 16.5579 55.3592 15.8367 56.108 15.1433V12.9245H51.2266V9.4853H60.0465V16.5856C58.1604 18.6935 55.5256 20.0803 52.1696 20.0803Z" fill="#133769"/>
<path d="M66.6122 19.7197H63.0898V6.32346H66.6122V8.154C67.5552 6.96138 69.2193 5.99063 70.8834 5.99063V9.42983C70.6338 9.37436 70.301 9.34663 69.9127 9.34663C68.7478 9.34663 67.1946 10.0123 66.6122 10.8721V19.7197Z" fill="#133769"/>
<path d="M79.297 20.0525C74.8871 20.0525 72.2245 16.8352 72.2245 13.0077C72.2245 9.20795 74.8871 5.99063 79.297 5.99063C83.7347 5.99063 86.3973 9.20795 86.3973 13.0077C86.3973 16.8352 83.7347 20.0525 79.297 20.0525ZM79.297 16.9184C81.4882 16.9184 82.7362 15.1156 82.7362 13.0077C82.7362 10.9275 81.4882 9.12474 79.297 9.12474C77.1059 9.12474 75.8856 10.9275 75.8856 13.0077C75.8856 15.1156 77.1059 16.9184 79.297 16.9184Z" fill="#133769"/>
<path d="M101.575 19.7197H98.0523V18.0278C97.137 19.054 95.5284 20.0525 93.3373 20.0525C90.3973 20.0525 89.0105 18.4439 89.0105 15.8367V6.32346H92.5329V14.45C92.5329 16.3082 93.5037 16.9184 95.0014 16.9184C96.3604 16.9184 97.4421 16.1696 98.0523 15.393V6.32346H101.575V19.7197Z" fill="#133769"/>
<path d="M112.727 20.0525C111.146 20.0525 109.676 19.3869 108.595 18.0001V24.823H105.072V6.32346H108.595V8.01532C109.621 6.71175 111.091 5.99063 112.727 5.99063C116.166 5.99063 118.663 8.5423 118.663 13.0077C118.663 17.4731 116.166 20.0525 112.727 20.0525ZM111.618 16.9184C113.642 16.9184 115.001 15.3375 115.001 13.0077C115.001 10.7057 113.642 9.12474 111.618 9.12474C110.481 9.12474 109.177 9.79039 108.595 10.6502V15.393C109.177 16.225 110.481 16.9184 111.618 16.9184Z" fill="#133769"/>
<path d="M136.309 19.7198H131.789L128.155 13.1465H125.271V19.7198H121.332V1.22021H129.986C133.841 1.22021 136.198 3.74414 136.198 7.18334C136.198 10.4561 134.146 12.2035 132.149 12.675L136.309 19.7198ZM129.403 9.67954C130.984 9.67954 132.177 8.73653 132.177 7.18334C132.177 5.63016 130.984 4.68715 129.403 4.68715H125.271V9.67954H129.403Z" fill="url(#paint0_linear_17183_20046)"/>
<path d="M159.207 19.7198H155.241V6.76731L150.027 19.7198H148.307L143.093 6.76731V19.7198H139.154V1.22021H144.674L149.167 12.3976L153.66 1.22021H159.207V19.7198Z" fill="url(#paint1_linear_17183_20046)"/>
<circle cx="30.0801" cy="30.9949" r="4.81279" fill="#133769"/>
<circle cx="4.81279" cy="4.81279" r="4.81279" transform="matrix(-1 0 0 1 9.62549 0.915039)" fill="#133769"/>
<circle cx="4.81279" cy="4.81279" r="4.81279" transform="matrix(-1 0 0 1 9.62549 26.1821)" fill="#133769"/>
<path fill-rule="evenodd" clip-rule="evenodd" d="M2.40649 17.2553C2.40649 17.409 2.51463 17.5419 2.66586 17.5691C3.36252 17.6946 4.08002 17.7601 4.81283 17.7601C11.4579 17.7601 16.8448 12.3732 16.8448 5.72812C16.8448 4.44038 16.6425 3.1999 16.268 2.03671C16.2257 1.90537 16.1025 1.81787 15.9645 1.81787H11.1227C10.8625 1.81787 10.7057 2.11224 10.8336 2.33884C11.3985 3.34015 11.7208 4.4965 11.7208 5.72812C11.7208 9.54327 8.62798 12.6361 4.81283 12.6361C4.12997 12.6361 3.47026 12.537 2.84727 12.3524C2.63138 12.2884 2.40649 12.445 2.40649 12.6701V17.2553Z" fill="#133769"/>
<path fill-rule="evenodd" clip-rule="evenodd" d="M30.0799 10.5406C32.7379 10.5406 34.8927 8.38586 34.8927 5.72783C34.8927 3.0698 32.7379 0.915039 30.0799 0.915039C27.4218 0.915039 25.2671 3.0698 25.2671 5.72783C25.2671 8.38586 27.4218 10.5406 30.0799 10.5406ZM18.0479 5.72786C18.0479 4.44012 18.2501 3.19964 18.6247 2.03645C18.667 1.90511 18.7902 1.81761 18.9281 1.81761H23.77C24.0301 1.81761 24.1869 2.11198 24.0591 2.33859C23.4942 3.3399 23.1719 4.49624 23.1719 5.72786C23.1719 9.54301 26.2647 12.6358 30.0798 12.6358C30.7627 12.6358 31.4225 12.5367 32.0455 12.3521C32.2614 12.2881 32.4863 12.4447 32.4863 12.6698V17.2551C32.4863 17.4087 32.3782 17.5416 32.2269 17.5688C31.5302 17.6943 30.8127 17.7598 30.0798 17.7598C23.4348 17.7598 18.0479 12.3729 18.0479 5.72786Z" fill="url(#paint2_linear_17183_20046)"/>
<path fill-rule="evenodd" clip-rule="evenodd" d="M18.3814 31.8971C18.2123 31.8971 18.0713 31.7666 18.0629 31.5976C18.0531 31.398 18.0481 31.197 18.0481 30.9949C18.0481 24.3498 23.435 18.9629 30.0801 18.9629C30.8129 18.9629 31.5304 19.0284 32.2271 19.1539C32.3783 19.1811 32.4864 19.314 32.4864 19.4677V24.0529C32.4864 24.278 32.2615 24.4345 32.0457 24.3706C31.4227 24.186 30.7629 24.0869 30.0801 24.0869C26.2649 24.0869 23.1721 27.1797 23.1721 30.9949C23.1721 31.1753 23.1791 31.3541 23.1926 31.5311C23.2076 31.7256 23.0576 31.8971 22.8626 31.8971H18.3814Z" fill="#133769"/>
<path fill-rule="evenodd" clip-rule="evenodd" d="M16.5116 31.8972C16.6808 31.8972 16.8217 31.7667 16.8301 31.5977C16.8399 31.398 16.8449 31.197 16.8449 30.9949C16.8449 24.3498 11.458 18.9629 4.81295 18.9629C4.0801 18.9629 3.36256 19.0284 2.66585 19.1539C2.51463 19.1811 2.40649 19.314 2.40649 19.4677V24.0529C2.40649 24.2781 2.63138 24.4346 2.84728 24.3706C3.4703 24.186 4.13005 24.0869 4.81295 24.0869C8.6281 24.0869 11.7209 27.1797 11.7209 30.9949C11.7209 31.1753 11.714 31.3542 11.7004 31.5312C11.6854 31.7257 11.8354 31.8972 12.0305 31.8972H16.5116Z" fill="#133769"/>
<defs>
<linearGradient id="paint0_linear_17183_20046" x1="121.332" y1="10.47" x2="159.207" y2="10.47" gradientUnits="userSpaceOnUse">
<stop stop-color="#F8B133"/>
<stop offset="1" stop-color="#D22635"/>
</linearGradient>
<linearGradient id="paint1_linear_17183_20046" x1="121.332" y1="10.47" x2="159.207" y2="10.47" gradientUnits="userSpaceOnUse">
<stop stop-color="#F8B133"/>
<stop offset="1" stop-color="#D22635"/>
</linearGradient>
<linearGradient id="paint2_linear_17183_20046" x1="26.4702" y1="0.915039" x2="26.4702" y2="17.7598" gradientUnits="userSpaceOnUse">
<stop stop-color="#F8B133"/>
<stop offset="0.96875" stop-color="#D22635"/>
<stop offset="1" stop-color="#FF8619" stop-opacity="0"/>
</linearGradient>
</defs>
</svg>
